<?xml version="1.0" encoding="UTF-8"?>
<svg width="640" height="360" preserveAspectRatio="xMidYMid" version="1.0" viewBox="0 0 480 270" xmlns="http://www.w3.org/2000/svg" zoomAndPan="magnify">
 <defs>
  <clipPath id="c8e4d7a51b">
   <path d="m0 0h192v71.91h-192z"/>
  </clipPath>
  <clipPath id="39e277888b">
   <path d="m406 15h54v45h-54z"/>
  </clipPath>
  <clipPath id="10de94dadd">
   <path d="m405.35 20.23 49.102-6.2695 5.0312 39.43-49.102 6.2695z"/>
  </clipPath>
  <clipPath id="e434548968">
   <path d="m405.35 20.23 49.102-6.2695 5.0312 39.43-49.102 6.2695z"/>
  </clipPath>
  <clipPath id="198efbbc77">
   <path d="m297 27h29v35h-29z"/>
  </clipPath>
  <clipPath id="b82ba38944">
   <path d="m277.43 21.719 52.809-14.445 15.242 55.703-52.812 14.445z"/>
  </clipPath>
  <clipPath id="c655a6f73a">
   <path d="m277.43 21.719 52.809-14.445 15.242 55.703-52.812 14.445z"/>
  </clipPath>
  <clipPath id="8f36ebb341">
   <path d="m277.43 21.719 52.809-14.445 15.242 55.703-52.812 14.445z"/>
  </clipPath>
  <clipPath id="5fb17b7d0d">
   <path d="m306 41h15v21h-15z"/>
  </clipPath>
  <clipPath id="a0482b8e59">
   <path d="m277.43 21.719 52.809-14.445 15.242 55.703-52.812 14.445z"/>
  </clipPath>
  <clipPath id="3bb775f08d">
   <path d="m277.43 21.719 52.809-14.445 15.242 55.703-52.812 14.445z"/>
  </clipPath>
  <clipPath id="6e3bd890ef">
   <path d="m277.43 21.719 52.809-14.445 15.242 55.703-52.812 14.445z"/>
  </clipPath>
  <clipPath id="76058c33df">
   <path d="m304 40h17v22h-17z"/>
  </clipPath>
  <clipPath id="3ec94f77e5">
   <path d="m277.43 21.719 52.809-14.445 15.242 55.703-52.812 14.445z"/>
  </clipPath>
  <clipPath id="256ac3ab02">
   <path d="m277.43 21.719 52.809-14.445 15.242 55.703-52.812 14.445z"/>
  </clipPath>
  <clipPath id="1571361df8">
   <path d="m277.43 21.719 52.809-14.445 15.242 55.703-52.812 14.445z"/>
  </clipPath>
  <clipPath id="950340f259">
   <path d="m311 58h13v13h-13z"/>
  </clipPath>
  <clipPath id="960cb7e928">
   <path d="m277.43 21.719 52.809-14.445 15.242 55.703-52.812 14.445z"/>
  </clipPath>
  <clipPath id="1ef24ff4c9">
   <path d="m277.43 21.719 52.809-14.445 15.242 55.703-52.812 14.445z"/>
  </clipPath>
  <clipPath id="48522f8cb0">
   <path d="m277.43 21.719 52.809-14.445 15.242 55.703-52.812 14.445z"/>
  </clipPath>
  <clipPath id="76b49e7e5f">
   <path d="m302 14h5v11h-5z"/>
  </clipPath>
  <clipPath id="87e4e12f42">
   <path d="m277.43 21.719 52.809-14.445 15.242 55.703-52.812 14.445z"/>
  </clipPath>
  <clipPath id="58ac4d9c55">
   <path d="m277.43 21.719 52.809-14.445 15.242 55.703-52.812 14.445z"/>
  </clipPath>
  <clipPath id="569097ef56">
   <path d="m277.43 21.719 52.809-14.445 15.242 55.703-52.812 14.445z"/>
  </clipPath>
  <clipPath id="2fce6929f4">
   <path d="m289 23h9v8h-9z"/>
  </clipPath>
  <clipPath id="af5fe4ae54">
   <path d="m277.43 21.719 52.809-14.445 15.242 55.703-52.812 14.445z"/>
  </clipPath>
  <clipPath id="9559def429">
   <path d="m277.43 21.719 52.809-14.445 15.242 55.703-52.812 14.445z"/>
  </clipPath>
  <clipPath id="41d7ee3249">
   <path d="m277.43 21.719 52.809-14.445 15.242 55.703-52.812 14.445z"/>
  </clipPath>
  <clipPath id="0715e6cee2">
   <path d="m317 14h5v11h-5z"/>
  </clipPath>
  <clipPath id="276003ae76">
   <path d="m277.43 21.719 52.809-14.445 15.242 55.703-52.812 14.445z"/>
  </clipPath>
  <clipPath id="3cfc014cc5">
   <path d="m277.43 21.719 52.809-14.445 15.242 55.703-52.812 14.445z"/>
  </clipPath>
  <clipPath id="b3ed4c546b">
   <path d="m277.43 21.719 52.809-14.445 15.242 55.703-52.812 14.445z"/>
  </clipPath>
  <clipPath id="95ef552562">
   <path d="m326 26h10v7h-10z"/>
  </clipPath>
  <clipPath id="8092dd2394">
   <path d="m277.43 21.719 52.809-14.445 15.242 55.703-52.812 14.445z"/>
  </clipPath>
  <clipPath id="bbb431013e">
   <path d="m277.43 21.719 52.809-14.445 15.242 55.703-52.812 14.445z"/>
  </clipPath>
  <clipPath id="c45d2503e0">
   <path d="m277.43 21.719 52.809-14.445 15.242 55.703-52.812 14.445z"/>
  </clipPath>
  <clipPath id="a3e707664c">
   <path d="m282 40h12v2h-12z"/>
  </clipPath>
  <clipPath id="c47dd2c48c">
   <path d="m277.43 21.719 52.809-14.445 15.242 55.703-52.812 14.445z"/>
  </clipPath>
  <clipPath id="a73e09b42d">
   <path d="m277.43 21.719 52.809-14.445 15.242 55.703-52.812 14.445z"/>
  </clipPath>
  <clipPath id="928708440c">
   <path d="m277.43 21.719 52.809-14.445 15.242 55.703-52.812 14.445z"/>
  </clipPath>
  <clipPath id="40355c5a9d">
   <path d="m328 42h11v3h-11z"/>
  </clipPath>
  <clipPath id="43772ace0b">
   <path d="m277.43 21.719 52.809-14.445 15.242 55.703-52.812 14.445z"/>
  </clipPath>
  <clipPath id="d0bf078a19">
   <path d="m277.43 21.719 52.809-14.445 15.242 55.703-52.812 14.445z"/>
  </clipPath>
  <clipPath id="fe037e834e">
   <path d="m277.43 21.719 52.809-14.445 15.242 55.703-52.812 14.445z"/>
  </clipPath>
  <clipPath id="d1fee632f4">
   <path d="m288 52h11v5h-11z"/>
  </clipPath>
  <clipPath id="cc5abe8072">
   <path d="m277.43 21.719 52.809-14.445 15.242 55.703-52.812 14.445z"/>
  </clipPath>
  <clipPath id="280372a89b">
   <path d="m277.43 21.719 52.809-14.445 15.242 55.703-52.812 14.445z"/>
  </clipPath>
  <clipPath id="b26e3bb96a">
   <path d="m277.43 21.719 52.809-14.445 15.242 55.703-52.812 14.445z"/>
  </clipPath>
  <clipPath id="ef124cadfb">
   <path d="m313 60h9v5h-9z"/>
  </clipPath>
  <clipPath id="50d3aeadb4">
   <path d="m277.43 21.719 52.809-14.445 15.242 55.703-52.812 14.445z"/>
  </clipPath>
  <clipPath id="8b948f6f22">
   <path d="m277.43 21.719 52.809-14.445 15.242 55.703-52.812 14.445z"/>
  </clipPath>
  <clipPath id="40ed914a8c">
   <path d="m277.43 21.719 52.809-14.445 15.242 55.703-52.812 14.445z"/>
  </clipPath>
  <clipPath id="e415766f0d">
   <path d="m314 64h9v4h-9z"/>
  </clipPath>
  <clipPath id="16532f1956">
   <path d="m277.43 21.719 52.809-14.445 15.242 55.703-52.812 14.445z"/>
  </clipPath>
  <clipPath id="a68c50ad39">
   <path d="m277.43 21.719 52.809-14.445 15.242 55.703-52.812 14.445z"/>
  </clipPath>
  <clipPath id="97d38e0020">
   <path d="m277.43 21.719 52.809-14.445 15.242 55.703-52.812 14.445z"/>
  </clipPath>
  <clipPath id="bae82b0cd6">
   <path d="m299 40h4v8h-4z"/>
  </clipPath>
  <clipPath id="907b46ee24">
   <path d="m277.43 21.719 52.809-14.445 15.242 55.703-52.812 14.445z"/>
  </clipPath>
  <clipPath id="a0b2a9cedf">
   <path d="m277.43 21.719 52.809-14.445 15.242 55.703-52.812 14.445z"/>
  </clipPath>
  <clipPath id="1020e3cef4">
   <path d="m277.43 21.719 52.809-14.445 15.242 55.703-52.812 14.445z"/>
  </clipPath>
  <clipPath id="c904d5f823">
   <path d="m28 25h38v35h-38z"/>
  </clipPath>
  <clipPath id="1594e58b95">
   <path d="m22.496 34.281 37.137-14.172 11.5 30.129-37.137 14.176z"/>
  </clipPath>
  <clipPath id="ee8719a0db">
   <path d="m22.496 34.281 37.137-14.172 11.5 30.129-37.137 14.176z"/>
  </clipPath>
  <clipPath id="4785d95abe">
   <path d="m386 77h82v82h-82z"/>
  </clipPath>
  <clipPath id="e52b421518">
   <path d="m423.56 77.984 43.82 36.457-36.938 44.395-43.816-36.457z"/>
  </clipPath>
  <clipPath id="3b5f155747">
   <path d="m423.56 77.984 43.82 36.457-36.938 44.395-43.816-36.457z"/>
  </clipPath>
  <clipPath id="8816a05b6f">
   <path d="m0 203.05h480v66.949h-480z"/>
  </clipPath>
  <clipPath id="c19d510562">
   <path d="m423 208h5v14h-5z"/>
  </clipPath>
  <clipPath id="09d1bd748e">
   <path d="m398.65 203.05 72 10.422-4.8359 33.402-72-10.422z"/>
  </clipPath>
  <clipPath id="4629cb1a4a">
   <path d="m398.65 203.05 72 10.422-4.8359 33.402-72-10.422z"/>
  </clipPath>
  <clipPath id="013412c602">
   <path d="m443 211h11v15h-11z"/>
  </clipPath>
  <clipPath id="bf84fed1ed">
   <path d="m398.65 203.05 72 10.422-4.8359 33.402-72-10.422z"/>
  </clipPath>
  <clipPath id="3cbbf96147">
   <path d="m398.65 203.05 72 10.422-4.8359 33.402-72-10.422z"/>
  </clipPath>
  <clipPath id="59f6f89d94">
   <path d="m445 219h3v2h-3z"/>
  </clipPath>
  <clipPath id="421c90531f">
   <path d="m398.65 203.05 72 10.422-4.8359 33.402-72-10.422z"/>
  </clipPath>
  <clipPath id="b57d2c424c">
   <path d="m398.65 203.05 72 10.422-4.8359 33.402-72-10.422z"/>
  </clipPath>
  <clipPath id="c874d7a921">
   <path d="m413 207h11v14h-11z"/>
  </clipPath>
  <clipPath id="68dd01b74d">
   <path d="m398.65 203.05 72 10.422-4.8359 33.402-72-10.422z"/>
  </clipPath>
  <clipPath id="40288978e5">
   <path d="m398.65 203.05 72 10.422-4.8359 33.402-72-10.422z"/>
  </clipPath>
  <clipPath id="d53a4dc2fd">
   <path d="m417 210h4v1h-4z"/>
  </clipPath>
  <clipPath id="2bbe67bcf6">
   <path d="m398.65 203.05 72 10.422-4.8359 33.402-72-10.422z"/>
  </clipPath>
  <clipPath id="84b1e2e72a">
   <path d="m398.65 203.05 72 10.422-4.8359 33.402-72-10.422z"/>
  </clipPath>
  <clipPath id="7f78455981">
   <path d="m428 209h15v15h-15z"/>
  </clipPath>
  <clipPath id="7b277d0ace">
   <path d="m398.65 203.05 72 10.422-4.8359 33.402-72-10.422z"/>
  </clipPath>
  <clipPath id="fcd6f8f35c">
   <path d="m398.65 203.05 72 10.422-4.8359 33.402-72-10.422z"/>
  </clipPath>
  <clipPath id="4d9e6a7ec7">
   <path d="m436 211h2v4h-2z"/>
  </clipPath>
  <clipPath id="9b94f53a18">
   <path d="m398.65 203.05 72 10.422-4.8359 33.402-72-10.422z"/>
  </clipPath>
  <clipPath id="378e6baeb5">
   <path d="m398.65 203.05 72 10.422-4.8359 33.402-72-10.422z"/>
  </clipPath>
  <clipPath id="a6ac1b4685">
   <path d="m395 222h12v15h-12z"/>
  </clipPath>
  <clipPath id="871755acfb">
   <path d="m398.65 203.05 72 10.422-4.8359 33.402-72-10.422z"/>
  </clipPath>
  <clipPath id="a9ba0c9cd6">
   <path d="m398.65 203.05 72 10.422-4.8359 33.402-72-10.422z"/>
  </clipPath>
  <clipPath id="324cafca5c">
   <path d="m399 225h4v2h-4z"/>
  </clipPath>
  <clipPath id="577061bfa0">
   <path d="m398.65 203.05 72 10.422-4.8359 33.402-72-10.422z"/>
  </clipPath>
  <clipPath id="c37ba015b4">
   <path d="m398.65 203.05 72 10.422-4.8359 33.402-72-10.422z"/>
  </clipPath>
  <clipPath id="8cf81e6588">
   <path d="m404 224h10v14h-10z"/>
  </clipPath>
  <clipPath id="066f84911e">
   <path d="m398.65 203.05 72 10.422-4.8359 33.402-72-10.422z"/>
  </clipPath>
  <clipPath id="f0a54d163b">
   <path d="m398.65 203.05 72 10.422-4.8359 33.402-72-10.422z"/>
  </clipPath>
  <clipPath id="329b7c50d5">
   <path d="m406 228h2v3h-2z"/>
  </clipPath>
  <clipPath id="179de97f10">
   <path d="m398.65 203.05 72 10.422-4.8359 33.402-72-10.422z"/>
  </clipPath>
  <clipPath id="231b188057">
   <path d="m398.65 203.05 72 10.422-4.8359 33.402-72-10.422z"/>
  </clipPath>
  <clipPath id="0a393dcb1c">
   <path d="m435 229h12v14h-12z"/>
  </clipPath>
  <clipPath id="cd9f3f4383">
   <path d="m398.65 203.05 72 10.422-4.8359 33.402-72-10.422z"/>
  </clipPath>
  <clipPath id="178c7eafb9">
   <path d="m398.65 203.05 72 10.422-4.8359 33.402-72-10.422z"/>
  </clipPath>
  <clipPath id="2aa4b013d2">
   <path d="m443 237h3v2h-3z"/>
  </clipPath>
  <clipPath id="5e42803216">
   <path d="m398.65 203.05 72 10.422-4.8359 33.402-72-10.422z"/>
  </clipPath>
  <clipPath id="b0d2b59e78">
   <path d="m398.65 203.05 72 10.422-4.8359 33.402-72-10.422z"/>
  </clipPath>
  <clipPath id="1d5c8437a7">
   <path d="m456 231h12v15h-12z"/>
  </clipPath>
  <clipPath id="4a9636c190">
   <path d="m398.65 203.05 72 10.422-4.8359 33.402-72-10.422z"/>
  </clipPath>
  <clipPath id="a3b3bb3901">
   <path d="m398.65 203.05 72 10.422-4.8359 33.402-72-10.422z"/>
  </clipPath>
  <clipPath id="300e4dd5aa">
   <path d="m463 238h2v3h-2z"/>
  </clipPath>
  <clipPath id="3af1a288e0">
   <path d="m398.65 203.05 72 10.422-4.8359 33.402-72-10.422z"/>
  </clipPath>
  <clipPath id="8a4405cf53">
   <path d="m398.65 203.05 72 10.422-4.8359 33.402-72-10.422z"/>
  </clipPath>
  <clipPath id="f4f12813d9">
   <path d="m459 235h2v3h-2z"/>
  </clipPath>
  <clipPath id="6eca241a62">
   <path d="m398.65 203.05 72 10.422-4.8359 33.402-72-10.422z"/>
  </clipPath>
  <clipPath id="b16741366b">
   <path d="m398.65 203.05 72 10.422-4.8359 33.402-72-10.422z"/>
  </clipPath>
  <clipPath id="4f6c122d66">
   <path d="m447 230h10v15h-10z"/>
  </clipPath>
  <clipPath id="ea462aeef3">
   <path d="m398.65 203.05 72 10.422-4.8359 33.402-72-10.422z"/>
  </clipPath>
  <clipPath id="dfbdd81704">
   <path d="m398.65 203.05 72 10.422-4.8359 33.402-72-10.422z"/>
  </clipPath>
  <clipPath id="85dd8de868">
   <path d="m452 238h3v2h-3z"/>
  </clipPath>
  <clipPath id="a6357a6197">
   <path d="m398.65 203.05 72 10.422-4.8359 33.402-72-10.422z"/>
  </clipPath>
  <clipPath id="93aa2d3119">
   <path d="m398.65 203.05 72 10.422-4.8359 33.402-72-10.422z"/>
  </clipPath>
  <clipPath id="335cc82cd3">
   <path d="m417 225h10v16h-10z"/>
  </clipPath>
  <clipPath id="1f893ddc38">
   <path d="m398.65 203.05 72 10.422-4.8359 33.402-72-10.422z"/>
  </clipPath>
  <clipPath id="52c8969b0c">
   <path d="m398.65 203.05 72 10.422-4.8359 33.402-72-10.422z"/>
  </clipPath>
  <clipPath id="bc8218bcc2">
   <path d="m419 237h3v1h-3z"/>
  </clipPath>
  <clipPath id="d366fefb92">
   <path d="m398.65 203.05 72 10.422-4.8359 33.402-72-10.422z"/>
  </clipPath>
  <clipPath id="8d4d9413a3">
   <path d="m398.65 203.05 72 10.422-4.8359 33.402-72-10.422z"/>
  </clipPath>
  <clipPath id="3ff9a3b5b0">
   <path d="m424 227h12v15h-12z"/>
  </clipPath>
  <clipPath id="9d63bc58c1">
   <path d="m398.65 203.05 72 10.422-4.8359 33.402-72-10.422z"/>
  </clipPath>
  <clipPath id="26c4de7a2c">
   <path d="m398.65 203.05 72 10.422-4.8359 33.402-72-10.422z"/>
  </clipPath>
  <clipPath id="3d8d2ef8b2">
   <path d="m427 235h3v2h-3z"/>
  </clipPath>
  <clipPath id="779f95fd00">
   <path d="m398.65 203.05 72 10.422-4.8359 33.402-72-10.422z"/>
  </clipPath>
  <clipPath id="1d555e0ac5">
   <path d="m398.65 203.05 72 10.422-4.8359 33.402-72-10.422z"/>
  </clipPath>
  <clipPath id="f6604d443a">
   <path d="m350 144h58v59h-58z"/>
  </clipPath>
  <clipPath id="82487e9151">
   <path d="m335.84 154.09 56.34-18.34 16.02 49.207-56.34 18.344z"/>
  </clipPath>
  <clipPath id="fed0ce7483">
   <path d="m335.84 154.09 56.34-18.34 16.02 49.207-56.34 18.344z"/>
  </clipPath>
 </defs>
 <g clip-path="url(#c8e4d7a51b)" fill-rule="evenodd">
  <path d="m191.96-24.84h-191.93v96.797c14.465-20.859 28.93-41.715 48.402-38.793 19.469 2.9219 43.945 29.625 56.742 26.148 12.793-3.4805 13.906-37.137 21.277-47.148 7.3711-10.016 21 3.6172 32.961 1.3906s22.254-20.312 32.547-38.395z" fill="#3f7d58"/>
  <path d="m89.746 37.051c-6.5352-2.7812-14.879-10.848-25.031-15.574-10.152-4.7305-22.113-6.1211-33.195 2.8477-11.082 8.9727-21.281 28.301-26.383 37.969l-5.1016 9.6641c14.465-20.859 28.93-41.715 48.402-38.793 19.469 2.9219 43.945 29.625 56.742 26.148 12.793-3.4805 13.906-37.137 21.277-47.148 7.3711-10.016 21 3.6172 32.961 1.3906s22.254-20.312 32.547-38.395h-14.461c-6.3945 8.4844-12.793 16.969-19.609 19.82-6.8125 2.8516-14.047 0.070312-23.363-0.48438-9.3203-0.55859-20.723 1.1094-25.867 8.2031-5.1484 7.0938-4.0352 19.609-5.8438 27.121-1.8086 7.5078-6.5352 10.012-13.074 7.2305z" fill="#b2c1a2"/>
 </g>
 <g clip-path="url(#39e277888b)">
  <g clip-path="url(#10de94dadd)">
   <g clip-path="url(#e434548968)">
    <path d="m454.49 19.168c-0.57422-0.11328-1.1797-0.21484-1.8047-0.30859l-0.20312-1.5977c-0.0195-0.14844-0.11328-0.27344-0.2461-0.33594-3.4375-1.6055-7.3086-1.7461-11.508-0.41797-3.1641 1-6.5469 2.8789-9.7812 5.4336-0.16797 0.07422-0.34375 0.15625-0.55859 0.25781-0.23047-0.04297-0.42578-0.07813-0.60547-0.10938-3.7734-1.6602-7.5195-2.6289-10.832-2.8047-4.4024-0.22656-8.1133 0.87891-11.035 3.2969-0.11328 0.09375-0.17187 0.23828-0.15234 0.38672l0.20312 1.5977c-0.57812 0.24609-1.1406 0.5-1.668 0.75391-0.16796 0.08203-0.26171 0.25781-0.23828 0.44141l4.2695 33.469c0.0195 0.13672 0.10157 0.25781 0.22266 0.32422s0.26953 0.07031 0.39453 0.01172c3.6602-1.7656 7.5625-2.9219 11.598-3.4375 4.0312-0.51172 8.1016-0.375 12.09 0.41016 0.0156 0.0039 0.0899 0.0078 0.10547 0.0078 0.0156 0 0.0352-0.0039 0.0508-0.0039 0.0156-0.0039 0.0312-0.0078 0.0469-0.01172 8e-3 -0.0039 0.0234-0.0078 0.0391-0.01563l8e-3 -0.0039v0.0039l0.0195-0.0078c3.6641-1.7656 7.5664-2.9219 11.602-3.4375 4.0312-0.51172 8.0976-0.375 12.09 0.41016 0.043 0.01172 0.0898 0.01172 0.13672 0.0078 0.0898-0.01172 0.17187-0.05078 0.23828-0.11328 0.10156-0.09375 0.15234-0.23438 0.13281-0.37109l-4.2695-33.465c-0.0234-0.1875-0.16406-0.33203-0.34375-0.37109zm-32.055 36.109c-3.9258 0.5-7.7344 1.5938-11.324 3.2578l-4.1562-32.57c0.3711-0.17578 0.7461-0.34766 1.125-0.51172l3.9453 30.91c0.0195 0.15625 0.125 0.28906 0.26953 0.34375 0.14844 0.05859 0.3125 0.03125 0.43359-0.06641 1.8164-1.5039 5.3008-3.1992 11.578-2.7461 2.8476 0.20312 5.2266 0.77734 6.8125 1.2578-2.8867-0.28516-5.8047-0.24609-8.6836 0.125zm11.754 0.09766c-2.082-0.95312-5.6836-2.043-9.8203-2.3398-1.7695-0.12891-3.4531-0.09375-5.0039 0.10547-2.6289 0.33594-4.8398 1.1328-6.5781 2.3672l-4.1367-32.41c2.7226-2.1719 6.1719-3.1641 10.254-2.9492 2.5781 0.13281 5.375 0.75 8.3125 1.832 0.75782 0.27734 1.5352 0.59375 2.3047 0.93359 0.18359 0.08203 0.37109 0.16406 0.55469 0.25zm-3.2578-32.32c0.16015-0.12891 0.3164-0.25391 0.47656-0.38281 0.66016-0.52344 1.332-1.0234 1.9961-1.4844 2.5703-1.7812 5.1211-3.082 7.5859-3.8594 3.8984-1.2305 7.4844-1.1367 10.668 0.28125l4.1367 32.41c-3.9961-1.5273-8.6289-0.57031-11.836 0.51172-3.9258 1.3281-7.1406 3.2891-8.9141 4.7344zm27.242 29.473c-3.8906-0.70703-7.8516-0.8125-11.777-0.30859-2.8828 0.36719-5.7148 1.0586-8.4375 2.0625 1.4141-0.86719 3.5742-2.0195 6.2773-2.9336 5.9609-2.0156 9.7617-1.2461 11.898-0.25 0.14063 0.06641 0.3086 0.05078 0.4375-0.03906 0.125-0.09375 0.19141-0.25 0.17188-0.40625l-3.9453-30.906c0.40625 0.0625 0.81641 0.13281 1.2188 0.21094z" fill="#3f7d58"/>
   </g>
  </g>
 </g>
 <g clip-path="url(#198efbbc77)">
  <g clip-path="url(#b82ba38944)">
   <g clip-path="url(#c655a6f73a)">
    <g clip-path="url(#8f36ebb341)">
     <path d="m298.95 35.125c-5.1211 8.2422 1.2266 16.418 7.0039 20.375 1.957 1.3438 3.6992 2.9805 4.9961 4.9648 0.43359 0.66797 1.1602 1.0898 1.957 1.1367l4.3359 0.26953c2.2734 0.14062 3.9844-2.6133 3.9492-4.8789-0.0195-1.207 0.21093-2.4844 0.85937-3.7109 2.3164-4.3672 5.4844-11.395 1.2266-19.004-3.8555-6.8867-17.035-10.891-24.328 0.84766z" fill="#ffb74b"/>
    </g>
   </g>
  </g>
 </g>
 <g clip-path="url(#5fb17b7d0d)">
  <g clip-path="url(#a0482b8e59)">
   <g clip-path="url(#3bb775f08d)">
    <g clip-path="url(#6e3bd890ef)">
     <path d="m309.18 49.691c1.957 2.3711 4.2422 10.934 4.2461 11.168 2.8906 0.71094 8.2656 1.3438 6.6406-1.8164-2.0352-3.9492-1.5195-15.113-2.1289-16.25-0.60937-1.1367-3.8281-0.73047-5.8633-1.0039-2.0391-0.27344-2.8945 1.3828-5.0195 3.3906-2.1289 2.0039 0.17188 2.1445 2.125 4.5117z" fill="#f99a42"/>
    </g>
   </g>
  </g>
 </g>
 <g clip-path="url(#76058c33df)">
  <g clip-path="url(#3ec94f77e5)">
   <g clip-path="url(#256ac3ab02)">
    <g clip-path="url(#1571361df8)">
     <path d="m310.88 41.113c0.55078 0.19531 1.1328 0.66016 1.6758 1.4336 0.32422 0.46875 0.49218 0.92578 0.49609 1.3672 4e-3 0.27344-0.0547 0.52734-0.16016 0.76172 0.5586 0.10938 1.0977 0.10156 1.5977-0.0078 0.22266-0.04687 0.4375-0.11328 0.64453-0.19922-0.043-0.28516-0.0703-0.53125-0.082-0.72656-0.0977-1.8906 0.87891-3.0781 1.8281-3.2891 0.23828-0.05469 0.48828-0.04687 0.71093 0.05469 0.23047 0.10156 0.40625 0.28906 0.5 0.53906 0.17578 0.48047 0.0469 1.1445-0.38281 1.9336-0.4375 0.80859-1.0625 1.4531-1.8086 1.8789 0.11718 0.65625 0.29687 1.4805 0.52343 2.4141 0.38672 1.6211 0.89454 3.5391 1.418 5.3867 0.51953 1.8516 1.0508 3.6328 1.4844 4.9844 0.21484 0.67578 0.40625 1.2383 0.55859 1.6484 0.0742 0.20703 0.14063 0.36719 0.19141 0.48438 0.0234 0.05859 0.0469 0.10156 0.0625 0.12891 4e-3 0.01563 0.0117 0.01953 0.0117 0.02344 0.12109 0.13672 0.11328 0.34766-0.0195 0.47266-0.13672 0.13281-0.35547 0.12891-0.48829-0.0078-0.0469-0.05078-0.0859-0.11328-0.10937-0.16016-0.0273-0.05078-0.0586-0.11328-0.0859-0.17969-0.0625-0.13281-0.13281-0.3125-0.21094-0.52344-0.15234-0.42188-0.34765-0.99609-0.5664-1.6758-0.4336-1.3594-0.96875-3.1484-1.4922-5.0078-0.52344-1.8555-1.0352-3.7812-1.4258-5.4141-0.20313-0.84766-0.375-1.625-0.49609-2.2734-0.20313 0.07422-0.41016 0.13672-0.625 0.17969-0.6836 0.14453-1.4141 0.13281-2.1602-0.05469-0.52734 0.55078-1.3516 0.94531-2.2031 1.2109-0.17187 0.05078-0.34375 0.10156-0.51953 0.14453 0.35157 0.57812 0.7461 1.418 1.1524 2.3945 0.49218 1.1758 1.0078 2.5742 1.5 4.0352 0.98047 2.9102 1.8711 6.0625 2.2305 8.082 0.0351 0.1875-0.0899 0.36719-0.27735 0.39844-0.1875 0.03516-0.36719-0.08984-0.39844-0.27734-0.35546-1.9688-1.2305-5.0859-2.207-7.9844-0.48828-1.4492-1-2.8359-1.4805-3.9922-0.46484-1.1133-0.89453-1.9883-1.2383-2.5039-0.58593 0.10547-1.1641 0.16016-1.6836 0.16406-0.44531 0.0078-0.85938-0.02344-1.1992-0.08984-0.32422-0.06641-0.64844-0.17969-0.84375-0.39844-0.32812-0.36719-0.38281-0.83594-0.22656-1.2383 0.15234-0.39844 0.5-0.72656 0.96484-0.87109 0.89844-0.28125 2.1016 0.12891 3.2891 1.6758 0.2461-0.05859 0.4961-0.12109 0.73438-0.19531 0.66797-0.20703 1.2461-0.48047 1.6562-0.80078-0.44141-0.17969-0.88281-0.42187-1.3164-0.73047-0.72265-0.50781-1.1484-1.0703-1.3086-1.6055-0.16016-0.53906-0.0508-1.0625 0.32031-1.3945 0.36719-0.32812 0.91016-0.39453 1.4648-0.19531zm1.332 3.3789c-0.46094-0.16406-0.9375-0.41016-1.4102-0.74219-0.64062-0.45312-0.94531-0.89844-1.0469-1.2422-0.10157-0.34375-0.0117-0.57031 0.12109-0.6875 0.13281-0.12109 0.39062-0.19922 0.76953-0.0625s0.85938 0.48438 1.3438 1.1797c0.26953 0.39062 0.37109 0.71484 0.375 0.98438 4e-3 0.19922-0.0469 0.39062-0.15234 0.57031zm-3.6562 1.6797c-1-1.1797-1.8477-1.3047-2.3086-1.1602-0.27734 0.08594-0.45703 0.27344-0.52734 0.46484-0.0742 0.18359-0.0469 0.375 0.0937 0.53125 0.0391 0.04688 0.17578 0.125 0.46875 0.18359 0.27734 0.05859 0.64062 0.08594 1.0547 0.08203 0.3789-0.0078 0.79687-0.03906 1.2188-0.10156zm7.2226-2.0469c0.53907-0.35547 0.99219-0.85156 1.3242-1.4688 0.40235-0.73828 0.41406-1.1758 0.33985-1.3672-0.0312-0.08984-0.0781-0.13281-0.13282-0.15625-0.0586-0.02734-0.15234-0.03906-0.28125-0.01172-0.51953 0.11719-1.3789 0.91406-1.2891 2.5859 4e-3 0.11719 0.0195 0.25781 0.0391 0.41797z" fill="#33342c" fill-rule="evenodd"/>
    </g>
   </g>
  </g>
 </g>
 <g clip-path="url(#950340f259)">
  <g clip-path="url(#960cb7e928)">
   <g clip-path="url(#1ef24ff4c9)">
    <g clip-path="url(#48522f8cb0)">
     <path d="m320.94 58.098-9.0234 2.6289c-0.39062 0.11328-0.72265 0.40625-0.77344 0.80859-0.15234 1.168 0.625 2.3008 1.2383 2.6914 0 0-0.29688 1.3438-0.0234 2.082 0.34375 0.93359 1.4609 2.0859 1.4609 2.0859 0.28906 1.0508 0.93359 1.2305 1.6055 1.5195 1.832 0.77734 7.25-1.332 7.8516-2.3867 0.60547-1.0547-0.0586-3.4805-0.0586-3.4805s0.0703-1.0469-0.10547-1.6875c-0.28906-1.0508-0.83203-1.7305-0.83203-1.7305s0.14844-0.87109-0.0273-1.4141c-0.22656-0.69141-0.48047-0.77734-0.72266-1.0039-0.15625-0.14844-0.38281-0.17188-0.58984-0.11328z" fill="#b2c1a2"/>
    </g>
   </g>
  </g>
 </g>
 <g clip-path="url(#76b49e7e5f)">
  <g clip-path="url(#87e4e12f42)">
   <g clip-path="url(#58ac4d9c55)">
    <g clip-path="url(#569097ef56)">
     <path d="m303.93 20.605c0.082 0.23828 0.16406 0.49219 0.2539 0.75 0.5586 1.6641 1.0898 3.6133 1.6914 3.625 0.69141 0.01172-0.47266-3.5938-1.2344-5.7734-0.082-0.23047-0.16796-0.48438-0.2539-0.74219-0.57813-1.6953-1.1719-3.7891-1.7227-3.5547-0.52734 0.22656 0.51953 3.5391 1.2656 5.6953z" fill="#ffb74b"/>
    </g>
   </g>
  </g>
 </g>
 <g clip-path="url(#2fce6929f4)">
  <g clip-path="url(#af5fe4ae54)">
   <g clip-path="url(#9559def429)">
    <g clip-path="url(#41d7ee3249)">
     <path d="m293.53 27.656c0.19922 0.15625 0.40625 0.32031 0.62109 0.49219 1.3711 1.1016 3.0117 2.5859 3.5234 2.2734 0.58984-0.35938-2.2305-2.7422-4.0547-4.1641-0.19531-0.15234-0.40234-0.31641-0.61718-0.48828-1.4024-1.1133-3.1445-2.582-3.4805-2.0898-0.32032 0.47266 2.2148 2.5625 4.0078 3.9766z" fill="#ffb74b"/>
    </g>
   </g>
  </g>
 </g>
 <g clip-path="url(#0715e6cee2)">
  <g clip-path="url(#276003ae76)">
   <g clip-path="url(#3cfc014cc5)">
    <g clip-path="url(#b3ed4c546b)">
     <path d="m319.96 21.09c0.0937-0.25781 0.1875-0.50781 0.28125-0.74219 0.82422-2.1289 1.9414-5.2188 1.4258-5.4648-0.53906-0.25391-1.293 1.8984-1.9336 3.5703v0.0039c-0.0977 0.25391-0.19141 0.50391-0.28125 0.73047-0.84375 2.1523-2.0625 5.6406-1.3672 5.6523 0.59766 0.0078 1.2539-2.1055 1.875-3.75z" fill="#ffb74b"/>
    </g>
   </g>
  </g>
 </g>
 <g clip-path="url(#95ef552562)">
  <g clip-path="url(#8092dd2394)">
   <g clip-path="url(#bbb431013e)">
    <g clip-path="url(#c45d2503e0)">
     <path d="m329.68 30.684c-1.3594 0.90234-2.7734 1.8398-3.2031 1.5078-0.54688-0.42188 2.5898-2.4375 4.5625-3.6523 0.34375-0.21484 0.72656-0.46484 1.1211-0.72266 1.4062-0.92578 2.9219-1.9219 3.1758-1.4492 0.26563 0.50391-2.6172 2.3945-4.5586 3.6055-0.34766 0.21875-0.71875 0.46484-1.0977 0.71094z" fill="#ffb74b"/>
    </g>
   </g>
  </g>
 </g>
 <g clip-path="url(#a3e707664c)">
  <g clip-path="url(#c47dd2c48c)">
   <g clip-path="url(#a73e09b42d)">
    <g clip-path="url(#928708440c)">
     <path d="m289.32 41.578c-0.27344-0.0078-0.54297-0.01953-0.79297-0.02344-2.2891-0.05468-5.7305-0.23437-5.7578-0.80468-0.0273-0.59375 2.1914-0.42188 3.9844-0.375 0.27734 0.0078 0.54297 0.01563 0.78906 0.01953 2.3164 0.04297 6.0703 0.21875 5.8164 0.85938-0.22266 0.55469-2.2774 0.37891-4.0391 0.32422z" fill="#ffb74b"/>
    </g>
   </g>
  </g>
 </g>
 <g clip-path="url(#40355c5a9d)">
  <g clip-path="url(#43772ace0b)">
   <g clip-path="url(#d0bf078a19)">
    <g clip-path="url(#fe037e834e)">
     <path d="m333.67 44.238c-0.375 0.0625-0.79687 0.14062-1.2383 0.22656-1.7383 0.33203-3.7305 0.71484-4.0039 0.23438-0.34375-0.59766 3.1289-1.2031 5.4141-1.5781 0.41797-0.06641 0.90234-0.16016 1.4023-0.26172 1.6875-0.33203 3.5469-0.69531 3.5938-0.16797 0.0547 0.57031-2.9102 1.1641-5.168 1.5469z" fill="#ffb74b"/>
    </g>
   </g>
  </g>
 </g>
 <g clip-path="url(#d1fee632f4)">
  <g clip-path="url(#cc5abe8072)">
   <g clip-path="url(#280372a89b)">
    <g clip-path="url(#b26e3bb96a)">
     <path d="m294.61 54.672c-0.59375 0.19922-1.168 0.39062-1.6328 0.56641-0.1875 0.07422-0.38282 0.14844-0.57422 0.22266-1.9922 0.77344-4.1133 1.5938-4.3359 1.1211-0.23438-0.48828 1.7383-1.2031 3.4297-1.8125 0.44531-0.16016 0.86718-0.31641 1.2266-0.45703 2.1602-0.83984 5.3164-1.9883 5.3281-1.3008 8e-3 0.51172-1.793 1.1094-3.4414 1.6602z" fill="#ffb74b"/>
    </g>
   </g>
  </g>
 </g>
 <g clip-path="url(#ef124cadfb)">
  <g clip-path="url(#50d3aeadb4)">
   <g clip-path="url(#8b948f6f22)">
    <g clip-path="url(#40ed914a8c)">
     <path d="m321.3 60.652c0.0937 0.08594 0.10157 0.23047 0.0156 0.32422-0.10938 0.12109-0.28125 0.24219-0.48047 0.35938-0.20312 0.12109-0.45312 0.25-0.73437 0.38281-0.5625 0.26562-1.2695 0.55078-2.0156 0.83203-1.4961 0.56641-3.1758 1.1211-4.2656 1.4609-0.1211 0.03516-0.25-0.03125-0.28907-0.15234-0.0351-0.12109 0.0312-0.24609 0.15235-0.28516 1.0859-0.33594 2.7578-0.88672 4.2383-1.4492 0.74609-0.28125 1.4375-0.5625 1.9844-0.82031 0.27344-0.12891 0.50782-0.25 0.69532-0.36328 0.1875-0.10938 0.3125-0.20312 0.375-0.27344 0.0859-0.09375 0.23046-0.10156 0.32421-0.01563z" fill="#33342c" fill-rule="evenodd"/>
    </g>
   </g>
  </g>
 </g>
 <g clip-path="url(#e415766f0d)">
  <g clip-path="url(#16532f1956)">
   <g clip-path="url(#a68c50ad39)">
    <g clip-path="url(#97d38e0020)">
     <path d="m322.04 64.242c0.0937 0.08594 0.10156 0.23047 0.0156 0.32422-0.10938 0.11719-0.28125 0.23828-0.48047 0.35938-0.20313 0.12109-0.44922 0.25-0.73438 0.38281-0.5625 0.26562-1.2656 0.55078-2.0156 0.83203-1.4922 0.56641-3.1719 1.1211-4.2656 1.4609-0.12109 0.03516-0.24609-0.03125-0.28515-0.15234-0.0391-0.12109 0.0312-0.24609 0.15234-0.28516 1.082-0.33594 2.7539-0.88672 4.2383-1.4492 0.74219-0.28125 1.4336-0.5625 1.9844-0.82031 0.27343-0.12891 0.50781-0.25 0.6914-0.36328 0.19141-0.11328 0.3125-0.20312 0.375-0.27344 0.0859-0.09375 0.23047-0.10156 0.32422-0.01562z" fill="#33342c" fill-rule="evenodd"/>
    </g>
   </g>
  </g>
 </g>
 <g clip-path="url(#bae82b0cd6)">
  <g clip-path="url(#907b46ee24)">
   <g clip-path="url(#a0b2a9cedf)">
    <g clip-path="url(#1020e3cef4)">
     <path d="m300.92 46.496c-0.91016-1.1484-1.3086-3.3945-1.332-4.8672-4e-3 -0.47656-0.10938-1.2148 0.36718-1.3242 0.27735-0.0625 0.45704 0.91797 0.57813 1.6016 0.37109 2.0547 1.1523 3.5625 1.4844 4.2891 0.33204 0.73047 0.25391 2-1.0976 0.30078z" fill="#ffe9c7"/>
    </g>
   </g>
  </g>
 </g>
 <g clip-path="url(#c904d5f823)">
  <g clip-path="url(#1594e58b95)">
   <g clip-path="url(#ee8719a0db)">
    <path d="m43.824 45.812c0.35547-0.23438 0.70312-0.46484 1.0625-0.6875 1.2656 2.2227 2.6055 4.4141 4.125 6.4648 0.60156 0.81641 1.7617-0.07813 1.2539-0.92188-1.293-2.1602-2.6602-4.2695-3.9688-6.4258 1.1328-0.68359 2.2812-1.3398 3.4297-1.9883 0.85547-0.48438 0.0625-1.9492-0.83203-1.5234-1.2109 0.57812-2.3984 1.2266-3.5469 1.9141-0.14844-0.25-0.29688-0.50391-0.44141-0.75781-0.83984-1.4727-1.6484-2.957-2.4297-4.457-0.79297-1.5273-1.4648-3.1523-2.3594-4.6211-0.35547-0.58203-1.2188-0.14453-1.1836 0.45312 0.10547 1.8086 0.01563 3.6367 0.0625 5.4531 0.04297 1.7812 0.10156 3.5586 0.19141 5.3438 0.04687 0.94531 0.10156 1.8945 0.16406 2.8438-0.69141 0.56641-1.3672 1.1406-2.0312 1.7227-0.35156 0.30859-0.48047 0.80859-0.18359 1.207 0.25781 0.35547 0.84766 0.48828 1.207 0.18359 0.37891-0.32812 0.76562-0.65234 1.1562-0.96875 0.13672 1.9258 0.30078 3.8477 0.47266 5.7656 0.08984 0.98047 1.5703 0.82422 1.5117-0.14062-0.14844-2.2969-0.26562-4.5859-0.39844-6.8828 0.90234-0.6875 1.8086-1.3438 2.7383-1.9766zm-2.9414-1.9141c-0.10156-1.7812-0.21094-3.5547-0.30859-5.3359-0.03516-0.61328-0.08594-1.2305-0.12891-1.8516 0.23047 0.48047 0.46484 0.96094 0.70313 1.4336 0.77734 1.5547 1.582 3.0898 2.4219 4.6094 0.13672 0.25 0.27734 0.50781 0.41406 0.75391-1.0273 0.66797-2.0234 1.375-2.9961 2.1172-0.04297-0.57812-0.07031-1.1562-0.10547-1.7266zm21.895-11.621c-1.1289-1.4883-2.5-2.7734-4.0352-3.7969-1.5039-1.2188-3.2188-2.1719-5.0859-2.7383-2.4336-0.73828-5.0664-0.83984-7.5469-0.26953-1.3086 0.29688-2.5469 0.78125-3.6992 1.4297-1.7461 0.66406-3.4297 1.543-4.957 2.5859-1.7773 1.2227-3.2266 2.7617-4.2539 4.6133-0.50781 0.66797-0.98047 1.3789-1.4062 2.1094-2.6289 4.5195-3.5938 10.148-2.1133 15.219 0.72266 2.4805 2.125 4.8008 4.2266 6.3516 1.9297 1.418 4.2695 2.0898 6.6406 2.1719 4.9531 0.16797 9.9531-1.8047 14.246-4.1211 4.3828-2.3594 8.6328-5.75 10.312-10.602 1.5469-4.4414 0.48047-9.2617-2.3281-12.953zm-3.918 19.539c-0.08203 0.06641-0.17188 0.14062-0.25391 0.20703 3.0391-2.9688 5.2188-6.8164 5.5312-11.023 0.08203 1.6641-0.13672 3.3281-0.72266 4.8828-0.91016 2.3828-2.5938 4.3477-4.5547 5.9336zm-15.113 6.5625c-1.7031 0.05859-3.457-0.19531-5.0391-0.85547-1.9492-0.97266-3.4062-2.7109-4.3516-4.6875-2.1523-4.4961-2.1133-9.9219-0.3125-14.527 1.8594-4.7461 5.6406-8.5078 10.422-10.281 3.5273-1.3125 7.4375-1.4258 10.918-0.13281 1.8906 0.91406 3.5703 2.2383 4.8438 3.9062 1.6484 2.1523 2.5898 4.7891 2.7422 7.4961 0.14453 2.6641-0.55469 5.2852-1.8438 7.6094-1.3438 2.4336-3.2969 4.4844-5.4961 6.1602-2.3594 1.8047-5.043 3.332-7.8398 4.3672-1.2344 0.45312-2.5352 0.78906-3.8516 0.92188-0.05078 0.01563-0.125 0.02344-0.19141 0.02344zm-4.8906-28.523c0.16016-0.09375 0.30859-0.18359 0.46484-0.27734-1.0625 0.79297-2.043 1.6914-2.9102 2.6875-1.9336 2.2031-3.3047 4.8594-4.0586 7.6875 0.26172-1.5508 0.68359-3.0781 1.3359-4.5078 1.0898-2.4062 2.9258-4.2227 5.168-5.5898zm-4.918 27.043c-4.0234-3.2539-4.875-9.1523-4.0117-13.977 0.36719-2.0664 1.0859-4.0664 2.0664-5.9258-0.625 2.0234-0.91797 4.1562-0.99219 6.2656-0.17578 5.2383 0.95312 11.379 5.75 14.363 0.36328 0.22266 0.73047 0.42578 1.1016 0.60156 0.69922 0.40234 1.4609 0.71484 2.2969 0.92578-2.2344-0.12891-4.3867-0.78125-6.2109-2.2539zm17.602-17.074c1.2031-0.92969 2.4375-1.8203 3.6992-2.6602-0.50781-1.3906-0.97266-2.7891-1.4141-4.2031-0.22656-0.73047 0.85938-1.1562 1.1211-0.42578 0.46484 1.2891 0.97266 2.5664 1.5117 3.8359 0.60156-0.37891 1.2031-0.76172 1.8125-1.1367 0.375-0.22656 0.75781-0.44922 1.1367-0.66797 0.48438-0.28516 0.82422-0.46484 1.3828-0.25 0.30469 0.11719 0.5625 0.54688 0.46875 0.875-0.17187 0.57812-0.44531 0.75781-0.98047 0.98438-0.40234 0.17188-0.80469 0.36719-1.2031 0.55469-0.68359 0.31641-1.3594 0.65234-2.0273 1.0078 0.48047 1.082 0.98047 2.1523 1.4961 3.2148 0.46484 0.95312-1.1133 1.5625-1.5508 0.58984-0.45313-1.0156-0.87891-2.0352-1.2773-3.0625-1.207 0.70312-2.3906 1.4375-3.5469 2.2227-0.57031 0.39453-1.1875-0.44922-0.62891-0.87891z" fill="#f99a42"/>
   </g>
  </g>
 </g>
 <g clip-path="url(#4785d95abe)">
  <g clip-path="url(#e52b421518)">
   <g clip-path="url(#3b5f155747)">
    <path d="m423.56 77.949 43.496 36.188-36.84 44.277-43.492-36.191z" fill="#3f7d58"/>
   </g>
  </g>
 </g>
 <g fill="#efefef">
  <g transform="translate(407.24,122.28)">
   <path d="m0.42188-9.5156c0-0.019531-0.007813-0.03125-0.015625-0.03125zm0.3125 7.2031c-0.13672 0-0.25781-0.03125-0.35938-0.09375-0.15625-0.11328-0.23438-0.31641-0.23438-0.60938 0.007813-0.10156 0.015625-0.1875 0.015625-0.25 0-0.070313 0.003906-0.12891 0.015625-0.17188 0.007813-0.039062 0.015625-0.085938 0.015625-0.14062v-0.17188c0-0.125 0.003906-0.19141 0.015625-0.20312v-0.14062c0-0.11328 0.003906-0.17969 0.015625-0.20312v-0.046875l0.015625-0.32812c0-0.03125 0.003906-0.054687 0.015625-0.078125v-0.17188c0-0.09375 0.003906-0.14453 0.015625-0.15625v-0.20312c0-0.125 0.003906-0.20312 0.015625-0.23438 0.007812-0.14453 0.015625-0.28516 0.015625-0.42188 0.007813-0.13281 0.015625-0.26953 0.015625-0.40625v-0.078125c0-0.03125 0.003906-0.0625 0.015625-0.09375v-0.25c0-0.03125 0.003906-0.0625 0.015625-0.09375v-0.54688c0-0.03125 0.003906-0.0625 0.015625-0.09375v-0.4375c0.007813-0.125 0.015625-0.25391 0.015625-0.39062 0.007812-0.14453 0.015625-0.29688 0.015625-0.45312 0.007813-0.0625 0.015625-0.13281 0.015625-0.21875v-0.3125l-0.015625-0.35938c0-0.14453 0.054687-0.27344 0.17188-0.39062 0.13281-0.10156 0.27344-0.15625 0.42188-0.15625 0.13281 0 0.26562 0.03906 0.39062 0.10938 0.11328 0.09375 0.17578 0.21875 0.1875 0.375 0.00781 0.03125 0.015625 0.1875 0.015625 0.46875v0.3125c0 0.085937-0.00781 0.15234-0.015625 0.20312v0.375c-0.011719 0.023438-0.015625 0.054688-0.015625 0.09375v0.09375c0 0.085938-0.00781 0.17969-0.015625 0.28125 0 0.10547-0.00781 0.21484-0.015625 0.32812v0.46875c-0.011719 0.023437-0.015625 0.046875-0.015625 0.078125v0.32813c0 0.085937-0.00781 0.16797-0.015625 0.25-0.011719 0.03125-0.015625 0.0625-0.015625 0.09375v0.21875c-0.011719 0.042969-0.015625 0.09375-0.015625 0.15625v0.35938l-0.03125 0.67188v0.09375c-0.011719 0.023437-0.015625 0.10547-0.015625 0.25l-0.015625 0.3125v0.078125c-0.011719 0.03125-0.015625 0.085938-0.015625 0.15625 0 0.074219-0.00781 0.10938-0.015625 0.10938v0.17188c0 0.054688-0.00781 0.10547-0.015625 0.15625v0.14062h2.2188c0.28125 0 0.48828 0.09375 0.625 0.28125 0.0625 0.09375 0.09375 0.1875 0.09375 0.28125s-0.03125 0.19922-0.09375 0.3125c-0.11719 0.1875-0.32031 0.28125-0.60938 0.28125-1.6367 0-2.4648-0.00391-2.4844-0.015625h-0.15625c-0.042969 0.011719-0.078125 0.023438-0.10938 0.03125h-0.09375z"/>
  </g>
  <g transform="translate(414.55,122.28)">
   <path d="m3.9062-3.6562-0.26562-0.015625c-0.15625-0.007813-0.30469-0.015625-0.4375-0.015625-0.13672-0.007812-0.26562-0.015625-0.39062-0.015625-0.64844-0.019531-1.0703-0.03125-1.2656-0.03125l-0.09375-0.015625c-0.0625-0.00781-0.11719-0.015625-0.15625-0.015625h-0.23438c-0.03125 0-0.058594-0.00391-0.078125-0.015625h-0.10938c-0.042969 0-0.074219-0.00391-0.09375-0.015625-0.03125-0.007813-0.074219-0.015625-0.125-0.015625-0.21875-0.050781-0.375-0.16406-0.46875-0.34375-0.03125-0.09375-0.046875-0.17578-0.046875-0.25 0-0.11328 0.03125-0.21875 0.09375-0.3125 0.11328-0.17578 0.28125-0.26562 0.5-0.26562 0.082031 0 0.14062 0.00781 0.17188 0.015625 0.019531 0.011719 0.050781 0.015625 0.09375 0.015625h0.046875c0.03125 0 0.066406 0.00781 0.10938 0.015625l0.078125 0.015625 2.2188 0.078125c0.03125 0.011719 0.066406 0.015625 0.10938 0.015625h0.375c0.26953 0 0.45312 0.10547 0.54688 0.3125 0.050781 0.09375 0.078125 0.18359 0.078125 0.26562 0 0.11719-0.039062 0.21875-0.10938 0.3125-0.09375 0.1875-0.27734 0.28125-0.54688 0.28125zm0-2.4531h-0.26562c-0.15625-0.007813-0.30469-0.015625-0.4375-0.015625-0.13672-0.007812-0.26562-0.015625-0.39062-0.015625-0.054688-0.007813-0.10156-0.015625-0.14062-0.015625-0.042969 0-0.078125-0.00391-0.10938-0.015625h-0.59375l-0.42188-0.015625h-0.09375c-0.0625-0.00781-0.11719-0.015625-0.15625-0.015625h-0.23438c-0.03125 0-0.058594-0.00391-0.078125-0.015625h-0.10938c-0.042969 0-0.074219-0.00391-0.09375-0.015625-0.03125-0.00781-0.074219-0.015625-0.125-0.015625-0.21875-0.0625-0.375-0.1875-0.46875-0.375-0.03125-0.082031-0.046875-0.16016-0.046875-0.23438 0-0.10156 0.03125-0.20312 0.09375-0.29688 0.11328-0.17578 0.28125-0.26562 0.5-0.26562 0.082031 0 0.14062 0.00781 0.17188 0.015625 0.019531 0.011719 0.050781 0.015625 0.09375 0.015625h0.046875c0.03125 0 0.066406 0.00781 0.10938 0.015625l0.078125 0.015625 0.90625 0.03125c0.17578 0 0.26953 0.00781 0.28125 0.015625 0.125 0 0.25391 0.00781 0.39062 0.015625h0.45312c0.125 0 0.23828 0.00781 0.34375 0.015625 0.11328 0 0.22266 0.00781 0.32812 0.015625 0.26953 0 0.45312 0.10547 0.54688 0.3125 0.050781 0.09375 0.078125 0.18359 0.078125 0.26562 0 0.11719-0.039062 0.21875-0.10938 0.3125-0.09375 0.17969-0.27734 0.26562-0.54688 0.26562z"/>
  </g>
  <g transform="translate(422.15,122.28)">
   <path d="m2.4844-2.9375c0.03125 0 0.050781-0.00391 0.0625-0.015625 0.00781 0 0.019531-0.00391 0.03125-0.015625v-0.015625c0.00781 0 0.019531-0.00391 0.03125-0.015625 0.00781-0.00781 0.023437-0.015625 0.046875-0.015625 0.019531-0.00781 0.035156-0.019531 0.046875-0.03125l0.03125-0.03125c0-0.00781 0.00391-0.019531 0.015625-0.03125 0-0.019531 0.00391-0.035156 0.015625-0.046875l0.015625-0.015625c0-0.00781 0.00391-0.019531 0.015625-0.03125v-0.015625l-0.015625-0.1875c-0.023438 0-0.039062 0.00781-0.046875 0.015625-0.042969 0.011719-0.078125 0.023437-0.10938 0.03125-0.03125 0-0.058594 0.00781-0.078125 0.015625-0.042969 0.011719-0.09375 0.027344-0.15625 0.046875-0.03125 0.011719-0.058594 0.03125-0.078125 0.0625-0.03125 0.03125-0.054688 0.046875-0.0625 0.046875-0.011719 0.011719-0.015625 0.023438-0.015625 0.03125v0.03125c-0.011719 0.011719-0.015625 0.023438-0.015625 0.03125-0.011719 0.011719-0.015625 0.027344-0.015625 0.046875 0.019531 0 0.035156 0.00781 0.046875 0.015625h0.015625c0.00781 0 0.019531 0.00781 0.03125 0.015625 0.007813 0.011719 0.019531 0.015625 0.03125 0.015625 0.019531 0 0.03125 0.00781 0.03125 0.015625 0.019531 0.023437 0.039063 0.03125 0.0625 0.03125 0.00781 0.011719 0.03125 0.015625 0.0625 0.015625zm-0.10938 1.1719-0.0625-0.015625c-0.085938-0.007812-0.16406-0.023438-0.23438-0.046875-0.074219-0.019531-0.13281-0.039063-0.17188-0.0625l-0.15625-0.046875-0.28125-0.20312c-0.023438-0.019531-0.046875-0.050781-0.078125-0.09375-0.03125-0.039063-0.070313-0.082031-0.10938-0.125-0.011719-0.00781-0.03125-0.039063-0.0625-0.09375-0.03125-0.0625-0.074219-0.14062-0.125-0.23438l-0.0625-0.29688c0-0.11328 0.015625-0.21875 0.046875-0.3125 0.00781-0.050781 0.019531-0.10156 0.03125-0.15625 0.019531-0.050781 0.035156-0.10156 0.046875-0.15625 0.082031-0.17578 0.19141-0.33203 0.32812-0.46875l0.078125-0.0625c0.082031-0.050781 0.1875-0.11328 0.3125-0.1875 0.019531-0.019531 0.054688-0.035156 0.10938-0.046875-0.042969-0.039062-0.078125-0.070312-0.10938-0.09375-0.03125-0.03125-0.058594-0.050781-0.078125-0.0625-0.023437-0.019531-0.046875-0.035156-0.078125-0.046875-0.023438-0.019531-0.039062-0.03125-0.046875-0.03125-0.023437-0.019531-0.046875-0.035156-0.078125-0.046875-0.03125-0.019531-0.058594-0.039062-0.078125-0.0625-0.03125-0.019531-0.0625-0.039062-0.09375-0.0625-0.023437-0.019531-0.042969-0.035156-0.0625-0.046875l-0.125-0.09375c-0.03125-0.019531-0.0625-0.039063-0.09375-0.0625-0.023437-0.03125-0.042969-0.050781-0.0625-0.0625-0.042969-0.007813-0.070313-0.03125-0.078125-0.0625-0.074219-0.050781-0.10938-0.078125-0.10938-0.078125-0.023437-0.019531-0.042969-0.039062-0.0625-0.0625-0.011719-0.019531-0.027344-0.035156-0.046875-0.046875-0.023438-0.019531-0.054688-0.050781-0.09375-0.09375-0.042969-0.039063-0.074219-0.078125-0.09375-0.10938-0.03125-0.03125-0.0625-0.078125-0.09375-0.14062-0.023438-0.019531-0.042969-0.039063-0.0625-0.0625-0.011719-0.03125-0.027344-0.054687-0.046875-0.078125-0.03125-0.070312-0.070313-0.13281-0.10938-0.1875-0.03125-0.0625-0.058594-0.12891-0.078125-0.20312l-0.0625-0.34375v-0.20312c0.007813-0.0625 0.019531-0.10938 0.03125-0.14062l0.03125-0.125c0.019531-0.070313 0.035156-0.12891 0.046875-0.17188 0.007812-0.03125 0.023438-0.066406 0.046875-0.10938l0.10938-0.21875c0.15625-0.25 0.31641-0.42578 0.48438-0.53125 0.20703-0.14453 0.39844-0.23828 0.57812-0.28125l0.078125-0.03125c0.09375-0.019531 0.17578-0.035156 0.25-0.046875 0.082031-0.019531 0.16016-0.03125 0.23438-0.03125 0.22656 0 0.38281 0.023438 0.46875 0.0625l0.078125 0.015625c0.14453 0.042969 0.26953 0.10156 0.375 0.17188 0.019531 0 0.035156 0.00781 0.046875 0.015625 0 0.011719 0.00781 0.027344 0.03125 0.046875 0.070312 0.03125 0.10938 0.0625 0.10938 0.09375 0.15625 0.11719 0.23438 0.26172 0.23438 0.4375v0.046875c0 0.13672-0.046875 0.25-0.14062 0.34375-0.11719 0.10547-0.24219 0.17969-0.375 0.21875l-0.0625 0.015625c-0.125 0-0.25781-0.050781-0.39062-0.15625 0-0.019531-0.011719-0.03125-0.03125-0.03125-0.011719-0.019531-0.027344-0.03125-0.046875-0.03125-0.023437-0.007812-0.039063-0.019531-0.046875-0.03125-0.011719-0.007812-0.023438-0.015625-0.03125-0.015625-0.011719 0-0.027344-0.00391-0.046875-0.015625-0.03125-0.00781-0.089844-0.015625-0.17188-0.015625h-0.125c0 0.011719-0.00781 0.015625-0.015625 0.015625-0.011719 0-0.027344 0.00781-0.046875 0.015625-0.0625 0.023437-0.11719 0.042969-0.15625 0.0625-0.15625 0.085937-0.27344 0.21094-0.34375 0.375 0 0.03125-0.011719 0.078125-0.03125 0.14062v0.0625c0.00781 0.011719 0.015625 0.023438 0.015625 0.03125 0 0.011719 0.00391 0.023438 0.015625 0.03125 0.00781 0.011719 0.023438 0.039062 0.046875 0.078125 0.019531 0.054687 0.03125 0.078125 0.03125 0.078125 0.00781 0.011719 0.015625 0.023438 0.015625 0.03125 0.00781 0.011719 0.015625 0.023438 0.015625 0.03125 0.00781 0.011719 0.019531 0.027344 0.03125 0.046875 0.019531 0.011719 0.039063 0.027344 0.0625 0.046875 0.019531 0.011719 0.039063 0.03125 0.0625 0.0625 0.019531 0.023438 0.039063 0.042969 0.0625 0.0625l0.15625 0.125c0.03125 0.03125 0.085937 0.078125 0.17188 0.14062 0.019531 0.011719 0.035156 0.023437 0.046875 0.03125 0.019531 0.011719 0.039063 0.023437 0.0625 0.03125 0.019531 0.011719 0.054687 0.039063 0.10938 0.078125 0.019531 0.011719 0.046875 0.03125 0.078125 0.0625 0.03125 0.023438 0.054687 0.042969 0.078125 0.0625l0.078125 0.03125c0.050781 0.03125 0.097656 0.070312 0.14062 0.10938 0.039062 0.03125 0.085938 0.070313 0.14062 0.10938 0.11328 0.10547 0.21094 0.19922 0.29688 0.28125 0.09375 0.085938 0.17188 0.16406 0.23438 0.23438 0.019531 0.023437 0.039063 0.046875 0.0625 0.078125h0.015625c0.050781-0.00781 0.097656-0.015625 0.14062-0.015625 0.039063-0.00781 0.085937-0.019531 0.14062-0.03125 0.10156 0 0.21875-0.019531 0.34375-0.0625l0.51562-0.14062c0.050781-0.03125 0.13281-0.066406 0.25-0.10938l0.29688-0.14062c0.070312-0.050781 0.12891-0.085938 0.17188-0.10938 0.050781-0.03125 0.082031-0.050781 0.09375-0.0625 0 0 0.03125-0.019531 0.09375-0.0625 0.03125-0.00781 0.078125-0.046875 0.14062-0.10938 0.0625-0.050781 0.12891-0.11719 0.20312-0.20312l0.21875-0.23438c0.17578-0.25 0.35938-0.375 0.54688-0.375 0.082031 0 0.15625 0.023438 0.21875 0.0625 0.25 0.11719 0.375 0.29688 0.375 0.54688 0 0.125-0.046875 0.25-0.14062 0.375l-0.0625 0.078125-0.29688 0.34375c-0.10547 0.10547-0.20312 0.19922-0.29688 0.28125-0.085937 0.085938-0.17188 0.15625-0.26562 0.21875l-0.34375 0.21875-0.1875 0.10938c-0.125 0.054687-0.23047 0.10547-0.3125 0.15625l-0.65625 0.23438-0.59375 0.125 0.015625 0.28125c0 0.19922-0.027344 0.38281-0.078125 0.54688-0.03125 0.074219-0.089844 0.17188-0.17188 0.29688-0.0625 0.15625-0.21094 0.3125-0.4375 0.46875-0.09375 0.054688-0.17969 0.09375-0.25 0.125-0.074219 0.03125-0.14062 0.054688-0.20312 0.0625-0.11719 0.03125-0.26172 0.046875-0.4375 0.046875z"/>
  </g>
  <g transform="translate(430.99,122.28)">
   <path d="m4.7344-1.8281c-0.16797 0-0.33594-0.023437-0.5-0.078125-0.085937-0.039062-0.17188-0.066406-0.26562-0.078125-0.32422-0.16406-0.57422-0.3125-0.75-0.4375-0.085938-0.0625-0.15625-0.11719-0.21875-0.17188-0.0625-0.050781-0.12109-0.097656-0.17188-0.14062l-0.14062-0.125c-0.042969-0.0625-0.085938-0.11328-0.125-0.15625-0.03125-0.050781-0.070312-0.097656-0.10938-0.14062-0.042969-0.039062-0.085937-0.082031-0.125-0.125-0.03125-0.039062-0.070313-0.082031-0.10938-0.125l-0.046875-0.0625c-0.03125 0.03125-0.046875 0.058594-0.046875 0.078125-0.03125 0.023437-0.070312 0.054687-0.10938 0.09375-0.042969 0.042969-0.085937 0.09375-0.125 0.15625-0.054687 0.074219-0.10547 0.14844-0.15625 0.21875-0.054687 0.074219-0.10938 0.14844-0.17188 0.21875l-0.32812 0.46875c-0.14844 0.19922-0.30469 0.29688-0.46875 0.29688-0.0625 0-0.13281-0.015625-0.20312-0.046875l-0.078125-0.046875c-0.23047-0.10156-0.34375-0.26562-0.34375-0.48438 0-0.14453 0.046875-0.27344 0.14062-0.39062l0.46875-0.65625 0.078125-0.125c0.019531-0.03125 0.046875-0.0625 0.078125-0.09375l0.09375-0.09375 0.0625-0.09375 0.4375-0.51562c0-0.019531-0.00781-0.03125-0.015625-0.03125-0.023437-0.050781-0.042969-0.097656-0.0625-0.14062-0.023437-0.03125-0.042969-0.066406-0.0625-0.10938-0.011719-0.019531-0.023437-0.035156-0.03125-0.046875-0.011719-0.007812-0.023437-0.019531-0.03125-0.03125-0.023437-0.019531-0.042969-0.050781-0.0625-0.09375-0.042969-0.10156-0.10547-0.21094-0.1875-0.32812-0.011719-0.03125-0.046875-0.097656-0.10938-0.20312 0-0.019531-0.007812-0.035156-0.015625-0.046875-0.011719-0.007813-0.023437-0.015625-0.03125-0.015625 0-0.00781-0.007813-0.019531-0.015625-0.03125-0.011719-0.050781-0.039062-0.085938-0.078125-0.10938 0-0.019531-0.074219-0.12891-0.21875-0.32812l-0.09375-0.15625c-0.09375-0.125-0.14062-0.25781-0.14062-0.40625 0-0.070312 0.019531-0.16016 0.0625-0.26562 0.13281-0.19531 0.30469-0.29688 0.51562-0.29688 0.20703 0 0.36719 0.089844 0.48438 0.26562l0.046875 0.046875c0.11328 0.16797 0.20312 0.30469 0.26562 0.40625 0.070312 0.09375 0.11328 0.15625 0.125 0.1875 0.019531 0.03125 0.035156 0.058594 0.046875 0.078125 0.00781 0.011719 0.015625 0.023437 0.015625 0.03125 0.00781 0.011719 0.015625 0.023437 0.015625 0.03125 0 0 0.00391 0.00781 0.015625 0.015625 0.00781 0.011719 0.015625 0.023438 0.015625 0.03125 0 0.011719 0.00391 0.023438 0.015625 0.03125 0.019531 0.03125 0.035156 0.058594 0.046875 0.078125 0.019531 0.023437 0.035156 0.042969 0.046875 0.0625 0.00781 0.023437 0.019531 0.042969 0.03125 0.0625 0.019531 0.023437 0.035156 0.042969 0.046875 0.0625 0.00781 0.042969 0.03125 0.074219 0.0625 0.09375 0.00781 0.011719 0.023437 0.039063 0.046875 0.078125 0.019531 0.042969 0.046875 0.10156 0.078125 0.17188l0.015625-0.015625c0.00781-0.00781 0.015625-0.019531 0.015625-0.03125 0.00781 0 0.09375-0.078125 0.25-0.23438 0.11328-0.10156 0.20703-0.1875 0.28125-0.25l0.14062-0.14062 0.25-0.23438c0.039062-0.039063 0.082031-0.070313 0.125-0.09375 0.050781-0.019531 0.09375-0.039063 0.125-0.0625 0.050781-0.050781 0.082031-0.078125 0.09375-0.078125l0.078125-0.0625c0.15625-0.070312 0.28906-0.10938 0.40625-0.10938 0.125 0 0.23438 0.039063 0.32812 0.10938 0.039062 0.042969 0.078125 0.089844 0.10938 0.14062 0.039063 0.054687 0.066406 0.10547 0.078125 0.15625 0.03125 0.042969 0.046875 0.089844 0.046875 0.14062 0 0.085938-0.023437 0.15625-0.0625 0.21875-0.03125 0.13672-0.11719 0.24609-0.25 0.32812l-0.015625 0.015625c-0.023438 0-0.042969 0.011719-0.0625 0.03125-0.023438 0.011719-0.046875 0.03125-0.078125 0.0625-0.03125 0.011719-0.0625 0.027344-0.09375 0.046875-0.023437 0.011719-0.042969 0.027344-0.0625 0.046875-0.011719 0.023438-0.03125 0.046875-0.0625 0.078125-0.03125 0.023437-0.0625 0.042969-0.09375 0.0625l-0.23438 0.23438c-0.0625 0.054688-0.14844 0.12109-0.25 0.20312-0.042969 0.0625-0.10547 0.13281-0.1875 0.20312l-0.25 0.26562c0.03125 0.03125 0.066406 0.078125 0.10938 0.14062 0.050781 0.054688 0.11328 0.13281 0.1875 0.23438l0.0625 0.09375c0.10156 0.10547 0.1875 0.1875 0.25 0.25s0.10938 0.11719 0.14062 0.15625l0.46875 0.29688c0.10156 0.054688 0.1875 0.09375 0.25 0.125 0.0625 0.023438 0.11328 0.03125 0.15625 0.03125 0.03125 0.011719 0.0625 0.023438 0.09375 0.03125h0.09375c0.03125 0 0.054688-0.00391 0.078125-0.015625 0.03125 0 0.054687-0.00391 0.078125-0.015625h0.09375c0.03125 0 0.050781-0.00391 0.0625-0.015625 0.019531 0 0.039062-0.00391 0.0625-0.015625 0 0 0.03125-0.00781 0.09375-0.03125 0.019531-0.00781 0.035156-0.019531 0.046875-0.03125 0.00781-0.00781 0.023437-0.019531 0.046875-0.03125 0.019531-0.00781 0.035156-0.015625 0.046875-0.015625 0.019531 0 0.035156-0.00391 0.046875-0.015625 0.10156-0.0625 0.17969-0.11328 0.23438-0.15625 0.050781-0.039062 0.082031-0.066406 0.09375-0.078125 0.03125-0.03125 0.054687-0.050781 0.078125-0.0625 0.13281-0.11328 0.23828-0.21094 0.3125-0.29688l0.54688-0.65625c0.019531 0 0.050781-0.03125 0.09375-0.09375 0.039063-0.039062 0.066406-0.078125 0.078125-0.10938 0.00781-0.019531 0.019531-0.035156 0.03125-0.046875 0.00781-0.019531 0.019531-0.035156 0.03125-0.046875 0.09375-0.125 0.20703-0.21094 0.34375-0.26562 0.050781-0.03125 0.10938-0.046875 0.17188-0.046875s0.11719 0.023437 0.17188 0.0625c0.25781 0.10547 0.39062 0.28906 0.39062 0.54688 0 0.14844-0.054687 0.28906-0.15625 0.42188-0.042969 0.054687-0.0625 0.078125-0.0625 0.078125-0.011719 0.011719-0.023437 0.027344-0.03125 0.046875-0.011719 0.011719-0.015625 0.027344-0.015625 0.046875l-0.14062 0.14062-0.0625 0.078125c-0.03125 0.0625-0.074219 0.12109-0.125 0.17188-0.054687 0.054687-0.10156 0.10547-0.14062 0.15625-0.023438 0.023437-0.042969 0.042969-0.0625 0.0625-0.023438 0.023437-0.042969 0.046875-0.0625 0.078125l-0.0625 0.0625c-0.011719 0.023438-0.03125 0.042969-0.0625 0.0625-0.023438 0.023438-0.042969 0.054688-0.0625 0.09375-0.0625 0.074219-0.10938 0.12109-0.14062 0.14062l-0.0625 0.0625c-0.023437 0.011719-0.042969 0.027344-0.0625 0.046875-0.074219 0.074219-0.16797 0.15234-0.28125 0.23438-0.10547 0.074219-0.21875 0.15234-0.34375 0.23438-0.042969 0.042969-0.15625 0.10547-0.34375 0.1875-0.11719 0.042969-0.21484 0.074219-0.29688 0.09375-0.074219 0.023438-0.13281 0.039062-0.17188 0.046875l-0.17188 0.046875z"/>
  </g>
  <g transform="translate(440.76,122.28)">
   <path d="m2.4844-2.9375c0.03125 0 0.050781-0.00391 0.0625-0.015625 0.00781 0 0.019531-0.00391 0.03125-0.015625v-0.015625c0.00781 0 0.019531-0.00391 0.03125-0.015625 0.00781-0.00781 0.023437-0.015625 0.046875-0.015625 0.019531-0.00781 0.035156-0.019531 0.046875-0.03125l0.03125-0.03125c0-0.00781 0.00391-0.019531 0.015625-0.03125 0-0.019531 0.00391-0.035156 0.015625-0.046875l0.015625-0.015625c0-0.00781 0.00391-0.019531 0.015625-0.03125v-0.015625l-0.015625-0.1875c-0.023438 0-0.039062 0.00781-0.046875 0.015625-0.042969 0.011719-0.078125 0.023437-0.10938 0.03125-0.03125 0-0.058594 0.00781-0.078125 0.015625-0.042969 0.011719-0.09375 0.027344-0.15625 0.046875-0.03125 0.011719-0.058594 0.03125-0.078125 0.0625-0.03125 0.03125-0.054688 0.046875-0.0625 0.046875-0.011719 0.011719-0.015625 0.023438-0.015625 0.03125v0.03125c-0.011719 0.011719-0.015625 0.023438-0.015625 0.03125-0.011719 0.011719-0.015625 0.027344-0.015625 0.046875 0.019531 0 0.035156 0.00781 0.046875 0.015625h0.015625c0.00781 0 0.019531 0.00781 0.03125 0.015625 0.007813 0.011719 0.019531 0.015625 0.03125 0.015625 0.019531 0 0.03125 0.00781 0.03125 0.015625 0.019531 0.023437 0.039063 0.03125 0.0625 0.03125 0.00781 0.011719 0.03125 0.015625 0.0625 0.015625zm-0.10938 1.1719-0.0625-0.015625c-0.085938-0.007812-0.16406-0.023438-0.23438-0.046875-0.074219-0.019531-0.13281-0.039063-0.17188-0.0625l-0.15625-0.046875-0.28125-0.20312c-0.023438-0.019531-0.046875-0.050781-0.078125-0.09375-0.03125-0.039063-0.070313-0.082031-0.10938-0.125-0.011719-0.00781-0.03125-0.039063-0.0625-0.09375-0.03125-0.0625-0.074219-0.14062-0.125-0.23438l-0.0625-0.29688c0-0.11328 0.015625-0.21875 0.046875-0.3125 0.00781-0.050781 0.019531-0.10156 0.03125-0.15625 0.019531-0.050781 0.035156-0.10156 0.046875-0.15625 0.082031-0.17578 0.19141-0.33203 0.32812-0.46875l0.078125-0.0625c0.082031-0.050781 0.1875-0.11328 0.3125-0.1875 0.019531-0.019531 0.054688-0.035156 0.10938-0.046875-0.042969-0.039062-0.078125-0.070312-0.10938-0.09375-0.03125-0.03125-0.058594-0.050781-0.078125-0.0625-0.023437-0.019531-0.046875-0.035156-0.078125-0.046875-0.023438-0.019531-0.039062-0.03125-0.046875-0.03125-0.023437-0.019531-0.046875-0.035156-0.078125-0.046875-0.03125-0.019531-0.058594-0.039062-0.078125-0.0625-0.03125-0.019531-0.0625-0.039062-0.09375-0.0625-0.023437-0.019531-0.042969-0.035156-0.0625-0.046875l-0.125-0.09375c-0.03125-0.019531-0.0625-0.039063-0.09375-0.0625-0.023437-0.03125-0.042969-0.050781-0.0625-0.0625-0.042969-0.007813-0.070313-0.03125-0.078125-0.0625-0.074219-0.050781-0.10938-0.078125-0.10938-0.078125-0.023437-0.019531-0.042969-0.039062-0.0625-0.0625-0.011719-0.019531-0.027344-0.035156-0.046875-0.046875-0.023438-0.019531-0.054688-0.050781-0.09375-0.09375-0.042969-0.039063-0.074219-0.078125-0.09375-0.10938-0.03125-0.03125-0.0625-0.078125-0.09375-0.14062-0.023438-0.019531-0.042969-0.039063-0.0625-0.0625-0.011719-0.03125-0.027344-0.054687-0.046875-0.078125-0.03125-0.070312-0.070313-0.13281-0.10938-0.1875-0.03125-0.0625-0.058594-0.12891-0.078125-0.20312l-0.0625-0.34375v-0.20312c0.007813-0.0625 0.019531-0.10938 0.03125-0.14062l0.03125-0.125c0.019531-0.070313 0.035156-0.12891 0.046875-0.17188 0.007812-0.03125 0.023438-0.066406 0.046875-0.10938l0.10938-0.21875c0.15625-0.25 0.31641-0.42578 0.48438-0.53125 0.20703-0.14453 0.39844-0.23828 0.57812-0.28125l0.078125-0.03125c0.09375-0.019531 0.17578-0.035156 0.25-0.046875 0.082031-0.019531 0.16016-0.03125 0.23438-0.03125 0.22656 0 0.38281 0.023438 0.46875 0.0625l0.078125 0.015625c0.14453 0.042969 0.26953 0.10156 0.375 0.17188 0.019531 0 0.035156 0.00781 0.046875 0.015625 0 0.011719 0.00781 0.027344 0.03125 0.046875 0.070312 0.03125 0.10938 0.0625 0.10938 0.09375 0.15625 0.11719 0.23438 0.26172 0.23438 0.4375v0.046875c0 0.13672-0.046875 0.25-0.14062 0.34375-0.11719 0.10547-0.24219 0.17969-0.375 0.21875l-0.0625 0.015625c-0.125 0-0.25781-0.050781-0.39062-0.15625 0-0.019531-0.011719-0.03125-0.03125-0.03125-0.011719-0.019531-0.027344-0.03125-0.046875-0.03125-0.023437-0.007812-0.039063-0.019531-0.046875-0.03125-0.011719-0.007812-0.023438-0.015625-0.03125-0.015625-0.011719 0-0.027344-0.00391-0.046875-0.015625-0.03125-0.00781-0.089844-0.015625-0.17188-0.015625h-0.125c0 0.011719-0.00781 0.015625-0.015625 0.015625-0.011719 0-0.027344 0.00781-0.046875 0.015625-0.0625 0.023437-0.11719 0.042969-0.15625 0.0625-0.15625 0.085937-0.27344 0.21094-0.34375 0.375 0 0.03125-0.011719 0.078125-0.03125 0.14062v0.0625c0.00781 0.011719 0.015625 0.023438 0.015625 0.03125 0 0.011719 0.00391 0.023438 0.015625 0.03125 0.00781 0.011719 0.023438 0.039062 0.046875 0.078125 0.019531 0.054687 0.03125 0.078125 0.03125 0.078125 0.00781 0.011719 0.015625 0.023438 0.015625 0.03125 0.00781 0.011719 0.015625 0.023438 0.015625 0.03125 0.00781 0.011719 0.019531 0.027344 0.03125 0.046875 0.019531 0.011719 0.039063 0.027344 0.0625 0.046875 0.019531 0.011719 0.039063 0.03125 0.0625 0.0625 0.019531 0.023438 0.039063 0.042969 0.0625 0.0625l0.15625 0.125c0.03125 0.03125 0.085937 0.078125 0.17188 0.14062 0.019531 0.011719 0.035156 0.023437 0.046875 0.03125 0.019531 0.011719 0.039063 0.023437 0.0625 0.03125 0.019531 0.011719 0.054687 0.039063 0.10938 0.078125 0.019531 0.011719 0.046875 0.03125 0.078125 0.0625 0.03125 0.023438 0.054687 0.042969 0.078125 0.0625l0.078125 0.03125c0.050781 0.03125 0.097656 0.070312 0.14062 0.10938 0.039062 0.03125 0.085938 0.070313 0.14062 0.10938 0.11328 0.10547 0.21094 0.19922 0.29688 0.28125 0.09375 0.085938 0.17188 0.16406 0.23438 0.23438 0.019531 0.023437 0.039063 0.046875 0.0625 0.078125h0.015625c0.050781-0.00781 0.097656-0.015625 0.14062-0.015625 0.039063-0.00781 0.085937-0.019531 0.14062-0.03125 0.10156 0 0.21875-0.019531 0.34375-0.0625l0.51562-0.14062c0.050781-0.03125 0.13281-0.066406 0.25-0.10938l0.29688-0.14062c0.070312-0.050781 0.12891-0.085938 0.17188-0.10938 0.050781-0.03125 0.082031-0.050781 0.09375-0.0625 0 0 0.03125-0.019531 0.09375-0.0625 0.03125-0.00781 0.078125-0.046875 0.14062-0.10938 0.0625-0.050781 0.12891-0.11719 0.20312-0.20312l0.21875-0.23438c0.17578-0.25 0.35938-0.375 0.54688-0.375 0.082031 0 0.15625 0.023438 0.21875 0.0625 0.25 0.11719 0.375 0.29688 0.375 0.54688 0 0.125-0.046875 0.25-0.14062 0.375l-0.0625 0.078125-0.29688 0.34375c-0.10547 0.10547-0.20312 0.19922-0.29688 0.28125-0.085937 0.085938-0.17188 0.15625-0.26562 0.21875l-0.34375 0.21875-0.1875 0.10938c-0.125 0.054687-0.23047 0.10547-0.3125 0.15625l-0.65625 0.23438-0.59375 0.125 0.015625 0.28125c0 0.19922-0.027344 0.38281-0.078125 0.54688-0.03125 0.074219-0.089844 0.17188-0.17188 0.29688-0.0625 0.15625-0.21094 0.3125-0.4375 0.46875-0.09375 0.054688-0.17969 0.09375-0.25 0.125-0.074219 0.03125-0.14062 0.054688-0.20312 0.0625-0.11719 0.03125-0.26172 0.046875-0.4375 0.046875z"/>
  </g>
 </g>
 <g clip-path="url(#8816a05b6f)">
  <path d="m-22.578 203.32 10.809 5.7617c10.809 5.7656 32.422 17.293 54.035 24.965 21.617 7.8203 43.23 11.422 64.844 17.293 21.617 5.6562 43.23 13.582 64.848 5.7617 21.613-7.6719 43.227-30.727 64.844-28.816 21.613 2.0508 43.227 28.711 64.844 34.582 21.613 5.6562 43.23-9.4766 64.844-9.582 21.613 0.10938 43.23 15.238 64.844 9.582 21.613-5.8711 43.23-32.531 54.035-46.113l10.809-13.434v92.223h-518.75z" fill="#3f7d58"/>
 </g>
 <g clip-path="url(#c19d510562)">
  <g clip-path="url(#09d1bd748e)">
   <g clip-path="url(#4629cb1a4a)">
    <path d="m426.46 208.67c-1.2109-0.22656-1.7578 1.4883-1.9336 2.3555-0.69922 2.6484-1.1562 5.3398-1.3672 8.0664-0.043 0.99219-0.15234 2.418 1.3242 2.5352 1.4766 0.11328 1.3477-1.7461 1.5664-2.9102 0.45312-2.4258 0.85547-5.2031 1.3594-7.3203 0.26172-1.1094 0.60938-2.5039-0.94922-2.7266z" fill="#3f7d58" fill-rule="evenodd"/>
   </g>
  </g>
 </g>
 <g clip-path="url(#013412c602)">
  <g clip-path="url(#bf84fed1ed)">
   <g clip-path="url(#3cbbf96147)">
    <path d="m445.28 216.84c-0.95703-0.58593-1.5781-0.42578-2.0195 0.20703-0.39062 0.64063-0.35937 1.7891 1.3203 2.5781-0.64843 6.5547 5.5586 7.5156 8.1524 3.5234 0.90625-1.4805-0.85156-2.9141-2.0859-1.3984-0.72656 0.89062-1.3008 1.4062-1.9844 1.3047-0.6875-0.0508-1.6367-0.73438-1.3867-2.7891 1.3398 0.13672 2.6016-0.11328 3.793-0.74609 2.4531-1.4844 2.6953-3.3477 2.6914-4.8359-0.0117-3.5938-6.0742-4.5273-8.4805 2.1562zm5.2188-1.9805c-0.92187-0.18359-1.625 0.90625-2.3828 2.6914 2.3438-0.0508 3.6523-2.4297 2.3828-2.6914z" fill="#b2c1a2" fill-rule="evenodd"/>
   </g>
  </g>
 </g>
 <g clip-path="url(#59f6f89d94)">
  <g clip-path="url(#421c90531f)">
   <g clip-path="url(#b57d2c424c)">
    <path d="m447.35 220.51c-0.50781 0.38281-2.2852-0.22266-2.0586-0.54688 0.0703-0.14062 0.82812 0.1211 1.707 0.2461 0.4375 0.0625 0.51953 0.17578 0.35156 0.30078z" fill="#3f7d58"/>
   </g>
  </g>
 </g>
 <g clip-path="url(#c874d7a921)">
  <g clip-path="url(#68dd01b74d)">
   <g clip-path="url(#40288978e5)">
    <path d="m417.23 209.96c-0.71484 2.375-1.1836 4.7969-1.3984 7.2656-0.0781 0.88672-0.45313 3.4726 1.082 3.543 2.2226 0.11718 1.3164-4.1445 3.1406-10.348 0.81641 0.18359 1.6445 0.32031 2.4805 0.40625 0.30078 0.0352 0.57422-0.0352 0.82422-0.20703 0.25-0.16797 0.41406-0.40234 0.49219-0.69141 0.082-0.29297 0.0547-0.57422-0.0742-0.84765-0.12891-0.27735-0.32813-0.47657-0.60547-0.59766-1.9727-0.92969-6.6406-1.7969-8.707-1.0625-0.73438 0.24219-1.0352 1.6406-0.26172 2.1523 0.92578 0.48047 1.6914 0.34375 3.0273 0.38672z" fill="#ffb74b" fill-rule="evenodd"/>
   </g>
  </g>
 </g>
 <g clip-path="url(#d53a4dc2fd)">
  <g clip-path="url(#2bbe67bcf6)">
   <g clip-path="url(#84b1e2e72a)">
    <path d="m418 210.04c0.15625-0.0273 1.0586 0.25391 1.6953 0.34375 0.67969 0.10156 0.625 0.14063 0.67578 0.14844 0.28516 0.0898-0.043 0.29297-0.29297 0.30859-1.4726 0.33985-2.7188-0.89453-2.0781-0.80078z" fill="#f99a42"/>
   </g>
  </g>
 </g>
 <g clip-path="url(#7f78455981)">
  <g clip-path="url(#7b277d0ace)">
   <g clip-path="url(#fcd6f8f35c)">
    <path d="m434.54 221.5c-1.9922-0.4375-0.6211-2.8203-0.38282-7.6758 0.0274-0.54297 0.0312-1.5859-0.80468-1.6562-1.0312-0.10156-1.4062 1.4375-1.707 2.8398-1.1406 5.3438-0.47265 7.8242-2.3203 7.7774-0.60156 0.0117-1.4062-0.60157-1.3086-1.9805 0.3164-5.0156 0.99219-12.254 5.9531-11.535 1.707 0.24609 2.3594 1.5859 2.7188 2.8828 0.16407-0.21484 0.35157-0.40234 0.5586-0.57031 0.20703-0.17187 0.43359-0.3125 0.67578-0.42969 0.23828-0.11328 0.49219-0.20312 0.7539-0.25781 0.26172-0.0586 0.52735-0.0859 0.79297-0.0781 0.26953 4e-3 0.53125 0.0391 0.79297 0.10546 0.25781 0.0664 0.50781 0.16407 0.74219 0.28907 0.23828 0.125 0.45703 0.27343 0.66016 0.44922 0.20312 0.17578 0.3789 0.375 0.53515 0.59375 1.0352 1.4414 0.66797 3.9766 0.10156 6.5352-0.45703 2.125-1.2188 5.3008-2.4844 5.1172-1.5195-0.17188-1.293-1.7305-0.96875-2.9297 0.52344-2.043 1.8008-6.4883 0.625-7.0781-0.83594-0.41797-1.3867 0.29687-1.8555 1.125-1.168 2.1289-1.1406 6.9688-3.0781 6.4766z" fill="#f99a42" fill-rule="evenodd"/>
   </g>
  </g>
 </g>
 <g clip-path="url(#4d9e6a7ec7)">
  <g clip-path="url(#9b94f53a18)">
   <g clip-path="url(#378e6baeb5)">
    <path d="m436.68 214.14c-0.1875-0.0781 0.0234-0.4961-0.0508-2.0469 0.0312-0.21875 0.0391-0.39062 0.23047-0.21875 0.71484 0.64453 0.0742 2.3945-0.17969 2.2656z" fill="#ffb74b"/>
   </g>
  </g>
 </g>
 <g clip-path="url(#a6ac1b4685)">
  <g clip-path="url(#871755acfb)">
   <g clip-path="url(#a9ba0c9cd6)">
    <path d="m399.38 225.7c-0.71875 2.375-1.1836 4.7969-1.3984 7.2656-0.0781 0.88281-0.45312 3.4688 1.0781 3.543 2.2226 0.11719 1.3203-4.1445 3.1406-10.352 0.82031 0.1875 1.6484 0.32031 2.4805 0.41015 0.30078 0.0312 0.57813-0.0391 0.82813-0.20703 0.24609-0.17187 0.41406-0.40234 0.49218-0.69531 0.0781-0.29297 0.0547-0.57422-0.0742-0.84766s-0.33203-0.47265-0.60546-0.59765c-1.9727-0.92969-6.6406-1.793-8.7109-1.0625-0.73047 0.24218-1.0352 1.6445-0.26172 2.1523 0.87891 0.47656 1.6992 0.29687 3.0312 0.39062z" fill="#f99a42" fill-rule="evenodd"/>
   </g>
  </g>
 </g>
 <g clip-path="url(#324cafca5c)">
  <g clip-path="url(#577061bfa0)">
   <g clip-path="url(#c37ba015b4)">
    <path d="m400.09 225.77c0.15625-0.0273 1.0586 0.25391 1.6953 0.34375 2.207 0.32031-0.94532 1.0078-1.8203-0.16406-0.0273-0.043-0.0273-0.0898 4e-3 -0.13281 0.0273-0.043 0.0703-0.0586 0.12109-0.0469z" fill="#ffb74b"/>
   </g>
  </g>
 </g>
 <g clip-path="url(#8cf81e6588)">
  <g clip-path="url(#066f84911e)">
   <g clip-path="url(#f0a54d163b)">
    <path d="m407.12 226.74c-1.5039-0.26953-2.7305 3.0391-2.8476 5.2109-0.35157 5.875 5.4805 6.8672 7.8555 3.1797 2.125-3.3281 2.332-9.2227-1.3828-10.059-1.832-0.41406-3.043 0.40625-3.625 1.668zm-0.0703 3.5742c-0.60937 1.4531-0.71094 3.5312 0.83594 4.2031 2.6172 1.1758 4.7969-4.9336 2.5508-6.9492-0.70313-0.65235-1.582 0.26562-1.3711 1.1953 0.15234 0.66797 1.0469 0.69922 1.3438 1.3867 0.47265 1.2148-0.61719 2.5508-2.0391 1.6992-0.66015-0.32032-1.1016-0.83204-1.3203-1.5352z" fill="#3f7d58" fill-rule="evenodd"/>
   </g>
  </g>
 </g>
 <g clip-path="url(#329b7c50d5)">
  <g clip-path="url(#179de97f10)">
   <g clip-path="url(#231b188057)">
    <path d="m407.21 230.58c0.0547 0.30859-0.25782 0.0625-0.38282-0.10547-0.23437-0.28515-0.38671-0.60937-0.45703-0.97265-0.0703-0.36329-0.0508-0.72266 0.0586-1.0742 0.0859-0.61328 0.61718 1.9336 0.78125 2.1523z" fill="#b2c1a2"/>
   </g>
  </g>
 </g>
 <g clip-path="url(#0a393dcb1c)">
  <g clip-path="url(#cd9f3f4383)">
   <g clip-path="url(#178c7eafb9)">
    <path d="m438.41 238.38c1.2695-0.35938 2.5664-0.58594 3.8828-0.6836-0.0312 0.54297-0.10156 1.0312-0.10937 1.4297-0.0703 1.5312-0.35157 3.4844 1.0898 3.4922 1.043 4e-3 1.3945-1.3906 1.6719-3.6406 0.0625-0.4375 0.0859-0.93359 0.15625-1.4219 1.1211-0.1836 1.3867-0.64453 1.4453-1.0352 0.10547-0.73047-0.16016-1.3164-1.3711-1.543-0.0703-2.9453-0.80468-5.793-3.1328-5.8789-3.0156-0.13672-5.293 5.6055-6.1602 8.168-0.58985 1.6602-1.3516 4.1875 0.33984 4.5312 1.4414 0.35938 1.5156-1.5234 2.1875-3.418zm4.082-3.4414c-4e-3 -1.3438-0.19141-2.4688-0.86719-2.6133-0.57812-0.13672-1.3867 1.3398-2.0938 3.1289 0.96875-0.26953 1.957-0.4414 2.9609-0.51562z" fill="#3f7d58" fill-rule="evenodd"/>
   </g>
  </g>
 </g>
 <g clip-path="url(#2aa4b013d2)">
  <g clip-path="url(#5e42803216)">
   <g clip-path="url(#b0d2b59e78)">
    <path d="m445.48 237.57c-4e-3 0.0469-0.0117 0.0977-0.0625 0.0898-0.61719 0.41406-1.2774 0.5-1.9766 0.26172-0.50391-0.32031 0.39062-0.29297 0.9414-0.3125 0.23828-0.0156 0.47266-0.0469 0.71094-0.0937 0.10156-0.0352 0.35547-0.0508 0.38672 0.0547z" fill="#b2c1a2"/>
   </g>
  </g>
 </g>
 <g clip-path="url(#1d5c8437a7)">
  <g clip-path="url(#4a9636c190)">
   <g clip-path="url(#a3b3bb3901)">
    <path d="m466.34 233.12c-1.2266-0.12891-1.5781 1.2656-1.7969 2.082-0.125 0.52734-0.41406 1.832-0.64453 3.4414-0.64063-1.4375-1.043-2.793-1.7148-4.332-0.44922-1.0117-0.67187-1.8906-1.6055-2.3242-0.9375-0.38281-1.6094 0.11719-2.0273 0.95313-0.51562 1.1797-0.85937 2.4062-1.0312 3.6836-0.17578 0.8711-0.35937 1.7891-0.48828 2.668-0.17969 0.90625-0.26172 1.8242-0.24609 2.75 0.0117 0.94922 0.0976 2.4062 1.1836 2.8125 1.0469 0.34766 1.4453-0.6875 1.5508-1.7695 0.10938-1.957 0.35547-3.8945 0.74219-5.8164 0.65234 1.3398 1.2305 2.8672 1.707 4.0312 0.26562 0.58594 0.51562 1.2695 0.76953 1.9024 0.24219 0.78125 0.62109 1.4805 1.1406 2.1094 0.2539 0.27344 0.5664 0.40235 0.9375 0.38282 0.29296-0.0469 0.53906-0.1836 0.73046-0.41016 0.19141-0.22656 0.28907-0.48828 0.28907-0.78516 0.17187-1.1719 0.23437-2.3047 0.33593-3.3359 0.21485-1.7148 0.52735-3.4141 0.9375-5.0938 0.26563-1.1562 0.65235-2.793-0.76953-2.9492z" fill="#ffb74b" fill-rule="evenodd"/>
   </g>
  </g>
 </g>
 <g clip-path="url(#300e4dd5aa)">
  <g clip-path="url(#3af1a288e0)">
   <g clip-path="url(#8a4405cf53)">
    <path d="m464.64 240.74c-0.0859-0.11328-0.30468-0.99219-0.52734-1.5195-0.0703-0.21875-0.15625-0.42969-0.25781-0.63672-0.0547-0.30469 0.26562-0.10937 0.39062 0.0586 0.25782 0.27735 0.44141 0.60157 0.54688 0.96485 0.10547 0.36719 0.12109 0.73828 0.0469 1.1133-0.0625 0.0898-0.125 0.17969-0.19922 0.0195z" fill="#f99a42"/>
   </g>
  </g>
 </g>
 <g clip-path="url(#f4f12813d9)">
  <g clip-path="url(#6eca241a62)">
   <g clip-path="url(#b16741366b)">
    <path d="m460.32 237.22c-0.0274-0.15235-0.26954-0.88282-0.38672-1.4492-0.15625-0.6211-0.17188-0.52344-0.15625-0.6211-0.11328-0.26172-0.26172 0.0625-0.28907 0.25782-0.0547 0.35156-0.0234 0.69531 0.0937 1.0312 0.1211 0.33593 0.3125 0.62109 0.57813 0.85937 0.0352 0.10547 0.19141 0.0781 0.16016-0.0781z" fill="#f99a42"/>
   </g>
  </g>
 </g>
 <g clip-path="url(#4f6c122d66)">
  <g clip-path="url(#ea462aeef3)">
   <g clip-path="url(#dfbdd81704)">
    <path d="m451.45 239.33c0.30859 0.94141 0.53515 1.9024 0.67969 2.8828 0.23437 1.4805 0.61718 1.9336 1.5703 1.8711 1.1641-0.12891 1.0625-1.8359 0.94531-3.0977-0.0664-0.80078-0.21875-1.5859-0.45312-2.3555 0.62109-0.375 1.1289-0.86329 1.5234-1.4727 0.39063-0.60547 0.63282-1.2695 0.71875-1.9883 0.67578-3.6367-2.1094-4.6875-3.7539-4.6758-1.3945 0-3.0859 0.35156-4.3398 3.8516-0.80078 2.1914-1.2422 4.4492-1.332 6.7812-0.0234 1.1914 8e-3 2.6875 1.3477 2.7305 1.0469 4e-3 1.1328-1.2774 1.2734-2.6016 0.0508-0.69141 0.14843-1.375 0.29687-2.0469 0.50391 0.0859 1.0117 0.12891 1.5234 0.12109zm1.0781-6.0703c-0.53515-0.0781-1.0391 0.30078-1.5976 1.7617-0.17188 0.50391-0.3125 1.0117-0.42188 1.5312 1.4961 0.31641 2.6992-0.40625 3.0547-1.5 0.26562-0.80859 0.0859-1.6289-1.0352-1.793z" fill="#f99a42" fill-rule="evenodd"/>
   </g>
  </g>
 </g>
 <g clip-path="url(#85dd8de868)">
  <g clip-path="url(#a6357a6197)">
   <g clip-path="url(#93aa2d3119)">
    <path d="m454.3 238.59c0.0469 8e-3 0.0391 0.0547 0.0312 0.10547-0.16015 0.42187-1.0156 0.84765-1.7148 0.84375-0.0977-0.0117-0.34766 0-0.38281-0.10156-0.0274-0.15625 0.6914-0.30079 1.3867-0.64844 0.16015-0.0742 0.53906-0.26953 0.67968-0.19922z" fill="#ffb74b"/>
   </g>
  </g>
 </g>
 <g clip-path="url(#335cc82cd3)">
  <g clip-path="url(#1f893ddc38)">
   <g clip-path="url(#52c8969b0c)">
    <path d="m418 239.27c0.89453 1.0234 1.9922 0.33594 5.25 0.85938 0.97656 0.14062 2.5078 0.5625 2.8867-0.67969 0.5-1.7188-1.7461-2.043-3.6133-2.2148-0.78515-0.0625-1.582 0.26953-1.5742-0.12891-0.0273-0.5 0.26954-0.80469 0.9336-3 0.64453-2.0586 1-4.1641 1.0625-6.3203-0.043-1.3984-0.38281-2.1445-1.5274-2.1602-0.89062-0.0312-1.1875 0.97266-1.3008 2.1016-1.1875 9.1133-3.3672 10.242-2.1172 11.543z" fill="#b2c1a2"/>
   </g>
  </g>
 </g>
 <g clip-path="url(#bc8218bcc2)">
  <g clip-path="url(#d366fefb92)">
   <g clip-path="url(#8d4d9413a3)">
    <path d="m421.22 237.34c-0.11328 0.0859-0.86328 0.125-1.9102 0.47266-0.52343 0.17187-0.0742-0.51172 0.79688-0.68359 0.82031-0.17969 1.4258 0.10937 1.1133 0.21093z" fill="#3f7d58"/>
   </g>
  </g>
 </g>
 <g clip-path="url(#3ff9a3b5b0)">
  <g clip-path="url(#9d63bc58c1)">
   <g clip-path="url(#26c4de7a2c)">
    <path d="m433.98 236.85c-1.3438-0.69141-1.8281 1.6289-3.0547 1.5-1.1758-0.1211-1.668-1.1875-1.625-2.5234 4.8398 0.69922 7.6133-5.7617 5.1289-7.5742-2.6602-1.9297-5.5625 0.58984-6.9883 3.918-1.0508-0.65235-1.8672-1.2148-2.5781-0.42188-1.082 1.1602 0.42968 2.5 1.832 3.1524-0.60156 4.1758 2.1797 6.5273 4.5391 6.1328 2.7461-0.39844 3.9531-3.5586 2.7461-4.1836zm-1.3828-5.2266c-0.35547 0.74219-1.5078 1.8203-2.7266 1.6445 1.3281-3.3438 3.7852-4.1328 2.7266-1.6445z" fill="#ffb74b"/>
   </g>
  </g>
 </g>
 <g clip-path="url(#3d8d2ef8b2)">
  <g clip-path="url(#779f95fd00)">
   <g clip-path="url(#1d555e0ac5)">
    <path d="m429.44 235.94c-8e-3 0.0469-0.0156 0.0977-0.0625 0.0898-0.67578 0.42969-2.1758-0.44141-2.1328-0.75781 0.0703-0.13672 0.72656 0.15625 1.4922 0.36718 0.19532 0.0273 0.625 0.14063 0.70313 0.30079z" fill="#f99a42"/>
   </g>
  </g>
 </g>
 <g clip-path="url(#f6604d443a)">
  <g clip-path="url(#82487e9151)">
   <g clip-path="url(#fed0ce7483)">
    <path d="m406.28 180.48v-4e-3l-39.727-34.828h-0.0117c-0.75781-0.67578-1.8359-0.95703-2.875-0.61719-0.92969 0.30078-1.5977 1.0234-1.8789 1.8867h-8e-3l-4e-3 0.0352c-0.0547 0.16407-0.0859 0.33204-0.10937 0.50391l-10.785 51.074v4e-3c-0.15234 0.53906-0.15234 1.1289 0.0352 1.707 0.5039 1.543 2.1641 2.3906 3.7109 1.8867l50.762-16.527c1.5469-0.5 2.3906-2.1641 1.8867-3.707-0.1875-0.58594-0.54297-1.0664-0.99609-1.4141z" fill="#f99a42"/>
   </g>
  </g>
 </g>
 <g fill="#3f7d58">
  <g transform="translate(359.23,48.01)">
   <path d="m4.25-3.9531c0 0.24219-0.058594 0.48047-0.17188 0.71875-0.11719 0.24219-0.25781 0.47656-0.42188 0.70312-0.16797 0.23047-0.34375 0.44922-0.53125 0.65625-0.1875 0.19922-0.35938 0.38672-0.51562 0.5625-0.03125 0.03125-0.078125 0.09375-0.14062 0.1875s-0.13672 0.20312-0.21875 0.32812c-0.074219 0.11719-0.15234 0.23438-0.23438 0.35938-0.074219 0.125-0.14844 0.24609-0.21875 0.35938-0.074219 0.10156-0.13672 0.1875-0.1875 0.25-0.054687 0.070313-0.089844 0.11328-0.10938 0.125l-0.046875-0.03125c0.16406-0.26172 0.32812-0.53125 0.48438-0.8125s0.33594-0.53906 0.54688-0.78125l0.0625-0.078125c-0.074219 0.0625-0.16406 0.16797-0.26562 0.3125-0.09375 0.14844-0.19531 0.30469-0.29688 0.46875-0.10547 0.16797-0.21094 0.33594-0.3125 0.5-0.09375 0.15625-0.17969 0.28125-0.25 0.375l-0.078125-0.0625c-0.011719 0.039062-0.039062 0.078125-0.078125 0.10938-0.042969 0.039063-0.085937 0.0625-0.125 0.0625-0.0625 0-0.10156-0.027344-0.10938-0.078125-0.011719-0.054688-0.015625-0.10547-0.015625-0.15625v-0.015625c0.11328-0.125 0.22656-0.26953 0.34375-0.4375 0.125-0.17578 0.24219-0.35156 0.35938-0.53125 0.11328-0.1875 0.22266-0.375 0.32812-0.5625 0.11328-0.1875 0.22266-0.35156 0.32812-0.5-0.11719 0.15625-0.23047 0.32031-0.34375 0.48438-0.11719 0.16797-0.22656 0.33594-0.32812 0.5-0.10547 0.16797-0.21484 0.33594-0.32812 0.5-0.11719 0.16797-0.23438 0.32422-0.35938 0.46875 0-0.0625 0.019531-0.13281 0.0625-0.21875 0.039063-0.082031 0.082031-0.16016 0.125-0.23438 0.050781-0.082031 0.10156-0.16016 0.15625-0.23438 0.050781-0.082031 0.09375-0.15625 0.125-0.21875l0.0625 0.03125c0.050781-0.125 0.125-0.25391 0.21875-0.39062 0.10156-0.14453 0.21094-0.28906 0.32812-0.4375 0.125-0.14453 0.25-0.28906 0.375-0.4375 0.125-0.15625 0.23438-0.3125 0.32812-0.46875h-0.015625c-0.011719 0-0.015625-0.00391-0.015625-0.015625-0.19922 0.24219-0.39062 0.48047-0.57812 0.71875-0.1875 0.24219-0.36719 0.48438-0.53125 0.73438 0.0625-0.11328 0.125-0.22266 0.1875-0.32812 0.070312-0.10156 0.14844-0.20703 0.23438-0.3125 0.0625-0.082031 0.14062-0.1875 0.23438-0.3125 0.10156-0.125 0.21094-0.25391 0.32812-0.39062 0.11328-0.13281 0.22656-0.27344 0.34375-0.42188 0.11328-0.14453 0.21875-0.28516 0.3125-0.42188 0.09375-0.14453 0.16406-0.28125 0.21875-0.40625 0.0625-0.13281 0.09375-0.25391 0.09375-0.35938 0.00781 0.011719 0.023437 0.015625 0.046875 0.015625 0.019531 0 0.035156-0.00391 0.046875-0.015625h0.046875c0.039062 0.023438 0.0625 0.054688 0.0625 0.09375 0 0.042969-0.00781 0.085938-0.015625 0.125l0.0625 0.015625c0.00781-0.019531 0.019531-0.050781 0.03125-0.09375 0.019531-0.039063 0.039063-0.082031 0.0625-0.125 0.019531-0.039063 0.039063-0.078125 0.0625-0.10938 0.03125-0.03125 0.0625-0.046875 0.09375-0.046875s0.050781 0.015625 0.0625 0.046875c0.019531 0.023438 0.035156 0.046875 0.046875 0.078125 0.00781 0.023437 0.015625 0.046875 0.015625 0.078125 0.00781 0.03125 0.015625 0.058594 0.015625 0.078125zm-0.9375 3.7188c0.082031-0.0625 0.1875-0.14453 0.3125-0.25 0.13281-0.10156 0.26562-0.21875 0.39062-0.34375 0.13281-0.125 0.25-0.25 0.34375-0.375s0.14844-0.23828 0.17188-0.34375c-0.042969 0-0.089844-0.00391-0.14062-0.015625-0.042969-0.00781-0.085937-0.015625-0.125-0.015625-0.03125 0-0.070313 0.011719-0.10938 0.03125-0.042969 0.011719-0.089844 0.03125-0.14062 0.0625-0.042969 0.03125-0.085937 0.0625-0.125 0.09375-0.042969 0.03125-0.078125 0.054687-0.10938 0.0625 0-0.03125-0.015625-0.050781-0.046875-0.0625-0.023437-0.019531-0.03125-0.046875-0.03125-0.078125 0-0.039062 0.023437-0.078125 0.078125-0.10938 0.050781-0.03125 0.09375-0.050781 0.125-0.0625l-0.046875-0.046875c-0.03125 0.011719-0.070313 0.023438-0.10938 0.03125h-0.10938c-0.042969 0-0.078125-0.00391-0.10938-0.015625-0.03125-0.019531-0.054688-0.050781-0.0625-0.09375v-0.046875c0.019531-0.070312 0.0625-0.13281 0.125-0.1875 0.070312-0.0625 0.14844-0.10938 0.23438-0.14062 0.082031-0.039063 0.16406-0.070313 0.25-0.09375 0.082031-0.03125 0.15625-0.046875 0.21875-0.046875 0.10156 0 0.21094 0.015625 0.32812 0.046875 0.125 0.03125 0.23438 0.078125 0.32812 0.14062 0.09375 0.054688 0.17188 0.125 0.23438 0.21875s0.09375 0.20312 0.09375 0.32812c0 0.13672-0.027344 0.26172-0.078125 0.375-0.054687 0.11719-0.12109 0.22656-0.20312 0.32812-0.074219 0.09375-0.16406 0.18359-0.26562 0.26562-0.10547 0.074219-0.21484 0.14062-0.32812 0.20312h0.09375c0.050781-0.007812 0.10156-0.015625 0.15625-0.015625 0.0625-0.007813 0.11719-0.015625 0.17188-0.015625 0.050781-0.007812 0.097656-0.015625 0.14062-0.015625 0.050781 0 0.10156 0.007813 0.15625 0.015625 0.0625 0.011719 0.10156 0.039062 0.125 0.078125-0.074219 0.011719-0.14844 0.023437-0.21875 0.03125-0.074219 0.011719-0.14844 0.015625-0.21875 0.015625l0.40625 0.015625v0.03125c0 0.03125 0.00781 0.054687 0.03125 0.0625 0.03125 0.011719 0.0625 0.023437 0.09375 0.03125 0.039062 0.011719 0.070312 0.023437 0.09375 0.03125 0.03125 0.011719 0.046875 0.039062 0.046875 0.078125s-0.023437 0.078125-0.0625 0.10938c-0.03125 0.03125-0.0625 0.054687-0.09375 0.078125-0.09375-0.023438-0.1875-0.03125-0.28125-0.03125h-0.65624c-0.125 0.007812-0.24609 0.015625-0.35938 0.015625h0.4375c0.125 0 0.25391 0.003906 0.39062 0.015625 0.13281 0.007812 0.26562 0.023438 0.39062 0.046875-0.042969 0.019531-0.085938 0.035156-0.125 0.046875-0.042969 0.007812-0.085938 0.015625-0.125 0.015625h-0.6875l-0.046875-0.0625c-0.1875 0.019531-0.37109 0.03125-0.54688 0.03125h-0.3125c-0.011719-0.074219-0.027344-0.15234-0.046875-0.23438-0.011719-0.082031-0.027344-0.16016-0.046875-0.23438zm-2.6875-3.9219h-0.125c-0.042969 0-0.085938-0.00391-0.125-0.015625-0.03125-0.019531-0.058594-0.050781-0.078125-0.09375 0-0.0625 0.023437-0.11328 0.078125-0.15625 0.050781-0.050781 0.11719-0.09375 0.20312-0.125 0.082031-0.03125 0.17188-0.054687 0.26562-0.078125 0.10156-0.03125 0.19531-0.054688 0.28125-0.078125 0.09375-0.03125 0.17578-0.054687 0.25-0.078125 0.082031-0.019531 0.14062-0.046875 0.17188-0.078125l0.59375 0.25c-0.023437 0.17969-0.046875 0.35547-0.078125 0.53125-0.03125 0.16797-0.0625 0.33984-0.09375 0.51562-0.023438 0.16797-0.042969 0.33984-0.0625 0.51562-0.023438 0.17969-0.03125 0.35547-0.03125 0.53125v0.14062c0 0.03125-0.00781 0.0625-0.015625 0.09375-0.011719 0.023438-0.03125 0.03125-0.0625 0.03125h-0.03125c0.00781-0.26953 0.023437-0.52344 0.046875-0.76562 0.019531-0.25 0.050781-0.50781 0.09375-0.78125-0.0625 0.26172-0.10156 0.51562-0.10938 0.76562-0.011719 0.25-0.03125 0.51172-0.0625 0.78125l-0.09375-0.015625v0.125l-0.0625 0.0625c-0.023437 0.023437-0.046875 0.03125-0.078125 0.03125-0.042969 0-0.078125-0.00781-0.10938-0.03125-0.03125-0.03125-0.058594-0.0625-0.078125-0.09375 0.03125-0.16406 0.054688-0.32812 0.078125-0.48438 0.019531-0.15625 0.03125-0.3125 0.03125-0.46875 0.00781-0.16406 0.015625-0.32812 0.015625-0.48438 0.00781-0.16406 0.019531-0.33203 0.03125-0.5-0.042969 0.3125-0.074219 0.625-0.09375 0.9375-0.011719 0.3125-0.046875 0.625-0.10938 0.9375-0.042969-0.070313-0.0625-0.14062-0.0625-0.20312 0-0.10156 0.00391-0.20312 0.015625-0.29688 0.00781-0.10156 0.019531-0.20312 0.03125-0.29688l0.0625-0.03125c0-0.03125-0.00781-0.050781-0.015625-0.0625v-0.0625c0-0.15625 0.00781-0.32031 0.03125-0.5 0.03125-0.17578 0.054687-0.33594 0.078125-0.48438l-0.0625 0.015625c-0.011719 0.17969-0.023438 0.35156-0.03125 0.51562-0.011719 0.16797-0.027344 0.33594-0.046875 0.5 0.00781-0.16406 0.019531-0.32812 0.03125-0.48438 0-0.16406 0.00781-0.33594 0.03125-0.51562-0.125 0.054687-0.25 0.10547-0.375 0.15625-0.125 0.042969-0.24609 0.089844-0.35938 0.14062l-0.078125-0.15625c0.007813-0.019531 0.023437-0.039062 0.046875-0.0625 0.03125-0.019531 0.0625-0.035156 0.09375-0.046875zm2.7812 4.4219 0.5 0.015625h-0.5zm0.3125-0.625c-0.03125 0.03125-0.0625 0.058594-0.09375 0.078125-0.023438 0.011719-0.042969 0.039062-0.0625 0.078125 0.03125-0.019531 0.054688-0.039063 0.078125-0.0625 0.03125-0.019531 0.054687-0.039063 0.078125-0.0625zm0.25-0.20312c-0.0625 0.054688-0.12109 0.10547-0.17188 0.15625 0.00781 0 0.03125-0.015625 0.0625-0.046875 0.039063-0.03125 0.078125-0.0625 0.10938-0.09375 0.039062-0.039063 0.078125-0.078125 0.10938-0.10938 0.00781-0.007812 0.015625-0.015625 0.015625-0.015625-0.042969 0.03125-0.085938 0.070313-0.125 0.10938zm-0.32812 0.6875 0.23438 0.03125v-0.03125z"/>
  </g>
  <g transform="translate(367.11,48.01)">
   <path d="m0.67188-1.5312c-0.023437-0.03125-0.03125-0.050781-0.03125-0.0625 0-0.019531 0.019531-0.039062 0.0625-0.0625l-0.046875-0.09375c-0.042969-0.00781-0.085938-0.03125-0.125-0.0625-0.042969-0.039062-0.074219-0.085938-0.09375-0.14062-0.042969-0.0625-0.078125-0.125-0.10938-0.1875-0.023437-0.070313-0.03125-0.13281-0.03125-0.1875 0-0.050781 0.019531-0.085937 0.0625-0.10938l0.23438-0.20312c0.007812-0.00781 0.039062-0.015625 0.09375-0.015625 0.0625-0.00781 0.125-0.015625 0.1875-0.015625 0.070312-0.00781 0.14062-0.019531 0.20312-0.03125 0.070313-0.019531 0.13281-0.046875 0.1875-0.078125 0.019531-0.00781 0.035156-0.019531 0.046875-0.03125 0.019531-0.019531 0.039062-0.035156 0.0625-0.046875 0.019531-0.00781 0.035156-0.015625 0.046875-0.015625 0.019531 0 0.039063 0.015625 0.0625 0.046875 0.019531 0.023437 0.039063 0.046875 0.0625 0.078125-0.0625 0.03125-0.11719 0.0625-0.15625 0.09375-0.042969 0.023438-0.085937 0.046875-0.125 0.078125-0.03125 0.023437-0.070313 0.042969-0.10938 0.0625-0.042969 0.023437-0.10156 0.042969-0.17188 0.0625 0.070313-0.00781 0.12891-0.023437 0.17188-0.046875 0.039062-0.019531 0.082031-0.039062 0.125-0.0625 0.039062-0.03125 0.082031-0.054688 0.125-0.078125 0.039062-0.019531 0.097656-0.039063 0.17188-0.0625 0 0.023437 0.00391 0.042969 0.015625 0.0625 0.00781 0.03125 0.023438 0.046875 0.046875 0.046875l0.046875-0.015625c0.050781 0.042969 0.10156 0.10156 0.15625 0.17188 0.00781 0.03125 0.019531 0.0625 0.03125 0.09375 0.00781 0.03125 0.019531 0.058594 0.03125 0.078125l0.015625 0.09375c-0.09375 0-0.19922 0.027344-0.3125 0.078125-0.10547 0.042969-0.18359 0.078125-0.23438 0.10938-0.042969 0.023437-0.078125 0.046875-0.10938 0.078125-0.023437 0.023438-0.046875 0.042969-0.078125 0.0625 0.11328-0.050781 0.22656-0.10938 0.34375-0.17188 0.11328-0.0625 0.23828-0.09375 0.375-0.09375h0.03125v0.046875c0 0.042969-0.00781 0.070312-0.015625 0.078125l-0.10938 0.03125c-0.03125 0.011719-0.0625 0.027344-0.09375 0.046875l-0.078125-0.0625c-0.03125 0.042969-0.074219 0.078125-0.125 0.10938-0.042969 0.023437-0.089844 0.042969-0.14062 0.0625-0.054688 0.023437-0.10547 0.042969-0.15625 0.0625-0.042969 0.023437-0.078125 0.046875-0.10938 0.078125-0.023437 0.023438-0.042969 0.058594-0.0625 0.10938h0.015625s0.00391 0.011719 0.015625 0.03125c0.050781-0.039063 0.097656-0.082031 0.14062-0.125 0.050781-0.039063 0.10938-0.078125 0.17188-0.10938 0.09375-0.050781 0.19141-0.097656 0.29688-0.14062-0.023438 0.023437-0.042969 0.039063-0.0625 0.046875-0.011719 0-0.027344 0.00781-0.046875 0.015625-0.074219 0.042969-0.125 0.078125-0.15625 0.10938s-0.0625 0.070312-0.09375 0.10938c-0.023437 0.03125-0.058594 0.070313-0.10938 0.10938-0.042969 0.042969-0.10938 0.09375-0.20312 0.15625-0.023437-0.00781-0.042969-0.015625-0.0625-0.015625h-0.046875c-0.054688 0-0.10156 0.011719-0.14062 0.03125-0.011719-0.03125-0.027344-0.0625-0.046875-0.09375-0.023438-0.039063-0.039062-0.078125-0.046875-0.10938z"/>
  </g>
  <g transform="translate(371.46,48.01)">
   <path d="m2.4062-1.5781h-0.39062c-0.11719 0-0.21875 0.00781-0.3125 0.015625-0.09375 0.011719-0.17188 0.039062-0.23438 0.078125-0.0625 0.03125-0.11719 0.085937-0.15625 0.15625-0.03125 0.0625-0.046875 0.15234-0.046875 0.26562 0 0.15625 0.019531 0.27734 0.0625 0.35938 0.039063 0.074219 0.09375 0.13281 0.15625 0.17188 0.070313 0.03125 0.15625 0.054688 0.25 0.0625 0.10156 0 0.21875 0.015625 0.34375 0.046875 0.070313 0.011719 0.14453 0.015625 0.21875 0.015625h0.65625c-0.21094-0.007812-0.41406-0.015625-0.60938-0.015625-0.19922 0-0.375-0.015625-0.53125-0.046875s-0.28906-0.085938-0.39062-0.17188c-0.09375-0.082031-0.14062-0.20703-0.14062-0.375 0-0.125 0.015625-0.22266 0.046875-0.29688 0.039063-0.070312 0.085937-0.125 0.14062-0.15625 0.0625-0.03125 0.12891-0.046875 0.20312-0.046875 0.082031-0.00781 0.17188-0.015625 0.26562-0.015625 0.11328 0 0.22656 0.00781 0.34375 0.015625-0.09375 0.03125-0.1875 0.054687-0.28125 0.0625-0.09375 0.011719-0.18359 0.027344-0.26562 0.046875-0.074219 0.011719-0.14062 0.027344-0.20312 0.046875-0.054688 0.023437-0.089844 0.054687-0.10938 0.09375v0.26562l-0.046875 0.03125c0.00781 0.09375 0.019531 0.16797 0.03125 0.21875 0.019531 0.054688 0.0625 0.09375 0.125 0.125 0.0625 0.023438 0.16016 0.042969 0.29688 0.0625 0.14453 0.011719 0.35156 0.039062 0.625 0.078125h0.4375c0.070313 0 0.11328-0.003906 0.125-0.015625 0.019531-0.007812 0.03125-0.015625 0.03125-0.015625l-0.046875-0.3125c-0.011719-0.082031-0.023438-0.15625-0.03125-0.21875-0.011719-0.0625-0.027344-0.12891-0.046875-0.20312 0 0.011719-0.011719 0.015625-0.03125 0.015625 0.019531 0.0625 0.035156 0.13672 0.046875 0.21875 0.00781 0.074219 0.019531 0.14844 0.03125 0.21875 0.00781 0.0625 0.015625 0.12109 0.015625 0.17188 0.00781 0.042969 0.019531 0.070312 0.03125 0.078125l-0.03125 0.015625h-0.17188c-0.03125-0.007812-0.078125-0.015625-0.14062-0.015625h-0.1875c-0.15625 0-0.30469-0.003906-0.4375-0.015625-0.125-0.019531-0.23438-0.039062-0.32812-0.0625 0.09375 0.023438 0.20703 0.039062 0.34375 0.046875 0.13281 0.011719 0.26562 0.015625 0.39062 0.015625h0.54687c-0.011719-0.007812-0.027344-0.015625-0.046875-0.015625-0.023437-0.28125-0.0625-0.54688-0.125-0.79688-0.054687-0.25-0.14062-0.46875-0.26562-0.65625-0.125-0.19531-0.28906-0.34766-0.48438-0.45312-0.19922-0.11328-0.44922-0.17188-0.75-0.17188-0.085937 0-0.16797 0.00781-0.25 0.015625-0.085937 0.011719-0.16797 0.027344-0.25 0.046875v-0.03125c0-0.019531-0.011719-0.035156-0.03125-0.046875-0.011719-0.019531-0.015625-0.039063-0.015625-0.0625 0-0.019531 0.023438-0.039063 0.078125-0.0625 0.050781-0.03125 0.16016-0.054687 0.32812-0.078125-0.011719 0-0.023438-0.00391-0.03125-0.015625v-0.046875c-0.21094 0-0.375-0.00391-0.5-0.015625-0.11719-0.00781-0.17188-0.039063-0.17188-0.09375 0-0.019531 0.019531-0.046875 0.0625-0.078125 0.050781-0.039062 0.125-0.078125 0.21875-0.10938s0.20312-0.054687 0.32812-0.078125c0.13281-0.03125 0.28125-0.046875 0.4375-0.046875 0.3125 0 0.57812 0.046875 0.79688 0.14062s0.39844 0.21875 0.54688 0.375c0.15625 0.15625 0.28125 0.33594 0.375 0.53125 0.09375 0.1875 0.16406 0.38281 0.21875 0.57812 0.0625 0.19922 0.10156 0.39062 0.125 0.57812 0.03125 0.1875 0.0625 0.35156 0.09375 0.48438v0.15625c0 0.11719-0.023438 0.21875-0.0625 0.3125-0.042969 0.085937-0.10156 0.15234-0.17188 0.20312-0.074219 0.0625-0.16406 0.10938-0.26562 0.14062-0.09375 0.03125-0.19922 0.046875-0.3125 0.046875-0.085938 0-0.19922-0.007812-0.34375-0.015625-0.13672 0-0.26562-0.011719-0.39062-0.03125-0.085937-0.023437-0.17969-0.039063-0.28125-0.046875-0.10547-0.011719-0.21094-0.03125-0.3125-0.0625-0.10547-0.023438-0.20312-0.050781-0.29688-0.09375-0.09375-0.039062-0.18359-0.10156-0.26562-0.1875-0.074219-0.09375-0.13672-0.21094-0.1875-0.35938-0.042969-0.14453-0.0625-0.32812-0.0625-0.54688 0-0.20703 0.046875-0.375 0.14062-0.5s0.20703-0.22266 0.34375-0.29688c0.13281-0.070313 0.26953-0.11719 0.40625-0.14062 0.14453-0.019531 0.25781-0.03125 0.34375-0.03125 0.11328 0 0.1875 0.011719 0.21875 0.03125 0.039062 0.011719 0.0625 0.027344 0.0625 0.046875v0.03125c-0.10547 0-0.23438 0.00781-0.39062 0.015625-0.15625 0-0.30859 0.027344-0.45312 0.078125-0.14844 0.042969-0.27344 0.10938-0.375 0.20312-0.10547 0.085938-0.15625 0.21094-0.15625 0.375 0.039062-0.15625 0.10156-0.27344 0.1875-0.35938 0.082031-0.082031 0.17969-0.14453 0.29688-0.1875 0.11328-0.039063 0.22656-0.066406 0.34375-0.078125 0.11328-0.00781 0.21875-0.015625 0.3125-0.015625h0.20312c-0.011719 0.011719-0.015625 0.027344-0.015625 0.046875 0 0.023438 0.00391 0.039062 0.015625 0.046875h0.23438c0.070313 0.011719 0.11719 0.03125 0.14062 0.0625 0.03125 0.03125 0.046875 0.058594 0.046875 0.078125 0 0.03125-0.023437 0.0625-0.0625 0.09375-0.03125 0.03125-0.089844 0.058594-0.17188 0.078125zm-1.0156 1.4531c0.11328 0.054688 0.22656 0.089844 0.34375 0.10938 0.125 0.019531 0.24219 0.035156 0.35938 0.046875 0.11328 0.0078125 0.22266 0.015625 0.32812 0.015625-0.085937-0.011719-0.16797-0.027344-0.25-0.046875-0.085937-0.019531-0.15625-0.035156-0.21875-0.046875-0.0625-0.019531-0.13281-0.03125-0.20312-0.03125-0.0625-0.0078125-0.13281-0.019531-0.20312-0.03125-0.0625-0.007813-0.13281-0.023437-0.20312-0.046875-0.074219-0.03125-0.14844-0.070312-0.21875-0.125 0.070312 0.0625 0.16016 0.11719 0.26562 0.15625zm0.0625-0.625s0.015625 0.011719 0.046875 0.03125c0.019531 0.03125 0.050781 0.054688 0.09375 0.0625-0.023438-0.007812-0.054688-0.019531-0.09375-0.03125-0.042969-0.019531-0.0625-0.046875-0.0625-0.078125zm0.15625 0.09375h-0.015625z"/>
  </g>
  <g transform="translate(377.64,48.01)">
   <path d="m0.67188-1.5312c-0.023437-0.03125-0.03125-0.050781-0.03125-0.0625 0-0.019531 0.019531-0.039062 0.0625-0.0625l-0.046875-0.09375c-0.042969-0.00781-0.085938-0.03125-0.125-0.0625-0.042969-0.039062-0.074219-0.085938-0.09375-0.14062-0.042969-0.0625-0.078125-0.125-0.10938-0.1875-0.023437-0.070313-0.03125-0.13281-0.03125-0.1875 0-0.050781 0.019531-0.085937 0.0625-0.10938l0.23438-0.20312c0.007812-0.00781 0.039062-0.015625 0.09375-0.015625 0.0625-0.00781 0.125-0.015625 0.1875-0.015625 0.070312-0.00781 0.14062-0.019531 0.20312-0.03125 0.070313-0.019531 0.13281-0.046875 0.1875-0.078125 0.019531-0.00781 0.035156-0.019531 0.046875-0.03125 0.019531-0.019531 0.039062-0.035156 0.0625-0.046875 0.019531-0.00781 0.035156-0.015625 0.046875-0.015625 0.019531 0 0.039063 0.015625 0.0625 0.046875 0.019531 0.023437 0.039063 0.046875 0.0625 0.078125-0.0625 0.03125-0.11719 0.0625-0.15625 0.09375-0.042969 0.023438-0.085937 0.046875-0.125 0.078125-0.03125 0.023437-0.070313 0.042969-0.10938 0.0625-0.042969 0.023437-0.10156 0.042969-0.17188 0.0625 0.070313-0.00781 0.12891-0.023437 0.17188-0.046875 0.039062-0.019531 0.082031-0.039062 0.125-0.0625 0.039062-0.03125 0.082031-0.054688 0.125-0.078125 0.039062-0.019531 0.097656-0.039063 0.17188-0.0625 0 0.023437 0.00391 0.042969 0.015625 0.0625 0.00781 0.03125 0.023438 0.046875 0.046875 0.046875l0.046875-0.015625c0.050781 0.042969 0.10156 0.10156 0.15625 0.17188 0.00781 0.03125 0.019531 0.0625 0.03125 0.09375 0.00781 0.03125 0.019531 0.058594 0.03125 0.078125l0.015625 0.09375c-0.09375 0-0.19922 0.027344-0.3125 0.078125-0.10547 0.042969-0.18359 0.078125-0.23438 0.10938-0.042969 0.023437-0.078125 0.046875-0.10938 0.078125-0.023437 0.023438-0.046875 0.042969-0.078125 0.0625 0.11328-0.050781 0.22656-0.10938 0.34375-0.17188 0.11328-0.0625 0.23828-0.09375 0.375-0.09375h0.03125v0.046875c0 0.042969-0.00781 0.070312-0.015625 0.078125l-0.10938 0.03125c-0.03125 0.011719-0.0625 0.027344-0.09375 0.046875l-0.078125-0.0625c-0.03125 0.042969-0.074219 0.078125-0.125 0.10938-0.042969 0.023437-0.089844 0.042969-0.14062 0.0625-0.054688 0.023437-0.10547 0.042969-0.15625 0.0625-0.042969 0.023437-0.078125 0.046875-0.10938 0.078125-0.023437 0.023438-0.042969 0.058594-0.0625 0.10938h0.015625s0.00391 0.011719 0.015625 0.03125c0.050781-0.039063 0.097656-0.082031 0.14062-0.125 0.050781-0.039063 0.10938-0.078125 0.17188-0.10938 0.09375-0.050781 0.19141-0.097656 0.29688-0.14062-0.023438 0.023437-0.042969 0.039063-0.0625 0.046875-0.011719 0-0.027344 0.00781-0.046875 0.015625-0.074219 0.042969-0.125 0.078125-0.15625 0.10938s-0.0625 0.070312-0.09375 0.10938c-0.023437 0.03125-0.058594 0.070313-0.10938 0.10938-0.042969 0.042969-0.10938 0.09375-0.20312 0.15625-0.023437-0.00781-0.042969-0.015625-0.0625-0.015625h-0.046875c-0.054688 0-0.10156 0.011719-0.14062 0.03125-0.011719-0.03125-0.027344-0.0625-0.046875-0.09375-0.023438-0.039063-0.039062-0.078125-0.046875-0.10938z"/>
  </g>
  <g transform="translate(381.99,48.01)">
   <path d="m2.5312-3c-0.03125 0-0.078125 0.00781-0.14062 0.015625-0.0625 0.011719-0.125 0.027344-0.1875 0.046875-0.0625 0.011719-0.12109 0.027344-0.17188 0.046875-0.054688 0.011719-0.085938 0.023437-0.09375 0.03125 0.10156-0.00781 0.19531-0.023437 0.28125-0.046875 0.09375-0.03125 0.19141-0.046875 0.29688-0.046875-0.023437 0.042969-0.046875 0.074219-0.078125 0.09375-0.03125 0.023437-0.070312 0.039063-0.10938 0.046875-0.03125 0.011719-0.074219 0.023438-0.125 0.03125-0.042969 0-0.089844 0.00781-0.14062 0.015625l-0.03125-0.046875c-0.085938 0.023438-0.14844 0.039062-0.1875 0.046875h-0.42188c0 0.023437-0.00781 0.039063-0.015625 0.046875h0.23438c0.0625 0 0.14062-0.00391 0.23438-0.015625-0.085938 0.011719-0.16406 0.023437-0.23438 0.03125-0.0625 0.011719-0.14062 0.015625-0.23438 0.015625-0.011719 0.085938-0.027344 0.17188-0.046875 0.26562-0.011719 0.085937-0.015625 0.16797-0.015625 0.25v0.17188c0.00781 0.0625 0.015625 0.13281 0.015625 0.20312 0.00781 0.0625 0.015625 0.125 0.015625 0.1875 0.00781 0.054687 0.015625 0.09375 0.015625 0.125v0.35938c0.019531 0.074219 0.078125 0.13281 0.17188 0.17188 0.09375 0.042969 0.23438 0.0625 0.42188 0.0625h0.1875c0.070313 0 0.11719 0.011719 0.14062 0.03125 0.03125 0.011719 0.046875 0.027344 0.046875 0.046875 0 0.023438-0.023437 0.03125-0.0625 0.03125h-0.09375c-0.11719 0-0.23438-0.003906-0.35938-0.015625-0.125-0.019531-0.24609-0.039063-0.35938-0.0625 0.11328 0.03125 0.23828 0.058594 0.375 0.078125 0.125 0.023438 0.25 0.03125 0.375 0.03125h0.10938v0.0625c0.00781 0.011719 0.015625 0.027344 0.015625 0.046875l0.046875-0.015625h0.046875c0.019531-0.007812 0.03125-0.015625 0.03125-0.015625 0.13281 0.011719 0.20312 0.054687 0.20312 0.125 0 0.042969-0.015625 0.078125-0.046875 0.10938-0.023437 0.03125-0.054687 0.058594-0.09375 0.078125-0.03125 0.011719-0.070313 0.023437-0.10938 0.03125h-0.125c-0.14844 0-0.28906-0.007813-0.42188-0.03125-0.125-0.019531-0.25781-0.035156-0.39062-0.046875 0.11328 0.03125 0.25391 0.0625 0.42188 0.09375 0.17578 0.023438 0.35156 0.03125 0.53125 0.03125-0.042969 0.03125-0.09375 0.058594-0.15625 0.078125-0.0625 0.011719-0.125 0.015625-0.1875 0.015625l-0.42188-0.0625c-0.0625-0.007812-0.10938-0.015625-0.14062-0.015625-0.03125-0.007813-0.0625-0.019531-0.09375-0.03125-0.023437-0.007813-0.054687-0.019531-0.09375-0.03125-0.03125-0.007813-0.074219-0.023437-0.125-0.046875v-0.0625c-0.10547-0.03125-0.19531-0.078125-0.26562-0.14062-0.0625-0.070313-0.10938-0.14453-0.14062-0.21875-0.03125-0.082031-0.058594-0.16406-0.078125-0.25-0.011719-0.082031-0.015625-0.15625-0.015625-0.21875v-0.1875c0.007813-0.0625 0.015625-0.11719 0.015625-0.17188 0-0.050781-0.007812-0.10938-0.015625-0.17188 0-0.070313-0.007813-0.14453-0.015625-0.21875v-0.57814c0-0.039062 0.003906-0.082031 0.015625-0.125h-0.0625v0.87501c0.007813 0.09375 0.015625 0.17969 0.015625 0.25 0.007812 0.0625 0.015625 0.10938 0.015625 0.14062v0.29688c-0.023437-0.10156-0.039063-0.25781-0.046875-0.46875-0.011719-0.22656-0.015625-0.48438-0.015625-0.76562v-0.23438c0-0.039062 0.003906-0.070312 0.015625-0.09375h-0.20312c-0.042969-0.03125-0.085937-0.050781-0.125-0.0625-0.042969-0.019531-0.085937-0.03125-0.125-0.03125v-0.1875c0.007813-0.019531 0.03125-0.03125 0.0625-0.03125 0.007813 0 0.03125 0.00781 0.0625 0.015625v-0.0625c-0.042969-0.03125-0.078125-0.066406-0.10938-0.10938-0.023438-0.039062-0.03125-0.082031-0.03125-0.125 0-0.10156 0.070312-0.15625 0.21875-0.15625 0.050781 0 0.10938 0.00781 0.17188 0.015625 0.0625 0.011719 0.125 0.015625 0.1875 0.015625 0.007813-0.082031 0.019531-0.16016 0.03125-0.23438 0.019531-0.070313 0.035156-0.14062 0.046875-0.20312 0.007812-0.070312 0.019531-0.14062 0.03125-0.20312 0.019531-0.0625 0.039062-0.12891 0.0625-0.20312 0.039062-0.082031 0.070312-0.17188 0.09375-0.26562 0.019531-0.09375 0.03125-0.1875 0.03125-0.28125l0.125 0.015625c0.019531 0 0.035156 0.00781 0.046875 0.015625 0.019531 0.011719 0.03125 0.039063 0.03125 0.078125 0 0.042969-0.00781 0.089844-0.015625 0.14062l0.0625 0.03125c0.039062-0.11328 0.082031-0.20312 0.125-0.26562 0.039062-0.070312 0.085938-0.10938 0.14062-0.10938 0.0625 0 0.10156 0.089844 0.125 0.26562v0.10938c0 0.10547-0.011719 0.20312-0.03125 0.29688-0.011719 0.085938-0.027344 0.17188-0.046875 0.26562-0.023438 0.085937-0.042969 0.17188-0.0625 0.26562-0.023438 0.085938-0.039062 0.18359-0.046875 0.29688 0.082031 0.011719 0.16406 0.015625 0.25 0.015625h0.25c0.03125 0 0.066406-0.015625 0.10938-0.046875 0.050781-0.039063 0.09375-0.0625 0.125-0.0625s0.054688 0.011719 0.078125 0.03125c0.019531 0.023437 0.03125 0.046875 0.03125 0.078125-0.074219 0.011719-0.14844 0.03125-0.21875 0.0625-0.074219 0.023438-0.14062 0.042969-0.20312 0.0625 0.0625-0.00781 0.12891-0.023438 0.20312-0.046875 0.070313-0.019531 0.14844-0.039063 0.23438-0.0625v0.0625c0 0.011719 0.00391 0.027344 0.015625 0.046875 0.00781 0 0.019531-0.00391 0.03125-0.015625 0.019531-0.00781 0.03125-0.015625 0.03125-0.015625 0.039063 0.023438 0.066406 0.046875 0.078125 0.078125 0.019531 0.03125 0.03125 0.070313 0.03125 0.10938 0 0.023438-0.00781 0.042969-0.015625 0.0625-0.011719 0.023438-0.015625 0.042969-0.015625 0.0625zm-1.5938 2.2188c-0.054688-0.11328-0.085938-0.22266-0.09375-0.32812 0-0.10156-0.007812-0.19531-0.015625-0.28125l-0.046875-0.92188-0.015625 0.10938c0 0.27344 0.003906 0.51562 0.015625 0.73438 0.019531 0.21875 0.050781 0.38672 0.09375 0.5 0 0.042969-0.007812 0.070312-0.015625 0.078125v0.03125s0.003906 0.011719 0.015625 0.03125c0.007812 0.011719 0.03125 0.027344 0.0625 0.046875zm0.34375-0.32812c-0.011719-0.03125-0.015625-0.066406-0.015625-0.10938v-0.28125c0 0.03125-0.00781 0.070312-0.015625 0.10938v0.125c0 0.10547 0.00391 0.18359 0.015625 0.23438 0.019531 0.054688 0.046875 0.09375 0.078125 0.125-0.023438-0.03125-0.039062-0.054688-0.046875-0.078125 0-0.03125-0.00781-0.070313-0.015625-0.125zm-0.57812 0v-0.046875zm0.65625 0.20312h-0.015625z"/>
  </g>
 </g>
</svg>
