<?xml version="1.0" standalone="no"?><svg xmlns="http://www.w3.org/2000/svg" viewBox="0 0 1440 320"><path fill="#ec5228" fill-opacity="1" d="M0,160L34.3,181.3C68.6,203,137,245,206,266.7C274.3,288,343,288,411,245.3C480,203,549,117,617,117.3C685.7,117,754,203,823,213.3C891.4,224,960,160,1029,133.3C1097.1,107,1166,117,1234,106.7C1302.9,96,1371,64,1406,48L1440,32L1440,0L1405.7,0C1371.4,0,1303,0,1234,0C1165.7,0,1097,0,1029,0C960,0,891,0,823,0C754.3,0,686,0,617,0C548.6,0,480,0,411,0C342.9,0,274,0,206,0C137.1,0,69,0,34,0L0,0Z"></path></svg>