<?xml version="1.0" standalone="no"?><svg xmlns="http://www.w3.org/2000/svg" viewBox="0 0 1440 320"><path fill="#3f7d58" fill-opacity="1" d="M0,192L34.3,186.7C68.6,181,137,171,206,181.3C274.3,192,343,224,411,245.3C480,267,549,277,617,240C685.7,203,754,117,823,112C891.4,107,960,181,1029,218.7C1097.1,256,1166,256,1234,261.3C1302.9,267,1371,277,1406,282.7L1440,288L1440,320L1405.7,320C1371.4,320,1303,320,1234,320C1165.7,320,1097,320,1029,320C960,320,891,320,823,320C754.3,320,686,320,617,320C548.6,320,480,320,411,320C342.9,320,274,320,206,320C137.1,320,69,320,34,320L0,320Z"></path></svg>