<?xml version="1.0" standalone="no"?><svg xmlns="http://www.w3.org/2000/svg" viewBox="0 0 1440 320"><path fill="#3f7d58" fill-opacity="1" d="M0,192L30,208C60,224,120,256,180,250.7C240,245,300,203,360,170.7C420,139,480,117,540,117.3C600,117,660,139,720,128C780,117,840,75,900,101.3C960,128,1020,224,1080,240C1140,256,1200,192,1260,181.3C1320,171,1380,213,1410,234.7L1440,256L1440,0L1410,0C1380,0,1320,0,1260,0C1200,0,1140,0,1080,0C1020,0,960,0,900,0C840,0,780,0,720,0C660,0,600,0,540,0C480,0,420,0,360,0C300,0,240,0,180,0C120,0,60,0,30,0L0,0Z"></path></svg>