<?xml version="1.0" standalone="no"?><svg xmlns="http://www.w3.org/2000/svg" viewBox="0 0 1440 320"><path fill="#ec5228" fill-opacity="1" d="M0,160L30,170.7C60,181,120,203,180,197.3C240,192,300,160,360,128C420,96,480,64,540,85.3C600,107,660,181,720,202.7C780,224,840,192,900,154.7C960,117,1020,75,1080,90.7C1140,107,1200,181,1260,218.7C1320,256,1380,256,1410,256L1440,256L1440,320L1410,320C1380,320,1320,320,1260,320C1200,320,1140,320,1080,320C1020,320,960,320,900,320C840,320,780,320,720,320C660,320,600,320,540,320C480,320,420,320,360,320C300,320,240,320,180,320C120,320,60,320,30,320L0,320Z"></path></svg>