<svg xmlns="http://www.w3.org/2000/svg" xmlns:xlink="http://www.w3.org/1999/xlink" width="500" zoomAndPan="magnify" viewBox="0 0 375 374.999991" height="500" preserveAspectRatio="xMidYMid meet" version="1.0"><defs><g/><clipPath id="997ec0d41c"><path d="M 2 72 L 210 72 L 210 281 L 2 281 Z M 2 72 " clip-rule="nonzero"/></clipPath><clipPath id="d1f7f5121c"><path d="M 58.921875 16.136719 L 266.660156 129.761719 L 153.035156 337.5 L -54.707031 223.875 Z M 58.921875 16.136719 " clip-rule="nonzero"/></clipPath><clipPath id="b75ca31b32"><path d="M 162.789062 72.949219 L 209.847656 233.628906 L 49.164062 280.6875 L 2.105469 120.003906 Z M 162.789062 72.949219 " clip-rule="nonzero"/></clipPath></defs><g clip-path="url(#997ec0d41c)"><g clip-path="url(#d1f7f5121c)"><g clip-path="url(#b75ca31b32)"><path fill="#ec5228" d="M 58.921875 16.136719 L 266.660156 129.761719 L 153.035156 337.5 L -54.707031 223.875 Z M 58.921875 16.136719 " fill-opacity="1" fill-rule="nonzero"/></g></g></g><g fill="#efefef" fill-opacity="1"><g transform="translate(28.007215, 224.370043)"><g><path d="M 31.125 0 L 7.8125 0 L 7.8125 -99.34375 L 31.125 -99.34375 L 31.125 -56.25 L 61.984375 -99.34375 L 89.96875 -99.34375 L 53.515625 -51.171875 L 90.484375 0 L 62.234375 0 L 31.125 -44.53125 Z M 31.125 0 "/></g></g></g><g fill="#efefef" fill-opacity="1"><g transform="translate(118.483196, 224.370043)"><g><path d="M 28.515625 1.5625 C 24.085938 1.5625 20.050781 0.738281 16.40625 -0.90625 C 12.757812 -2.5625 9.828125 -5.035156 7.609375 -8.328125 C 5.398438 -11.628906 4.296875 -15.753906 4.296875 -20.703125 C 4.296875 -25.128906 5.160156 -28.773438 6.890625 -31.640625 C 8.628906 -34.503906 10.847656 -36.804688 13.546875 -38.546875 C 16.148438 -40.273438 19.015625 -41.550781 22.140625 -42.375 C 25.265625 -43.207031 28.210938 -43.882812 30.984375 -44.40625 L 50.125 -47.78125 C 49.863281 -51.519531 48.867188 -54.382812 47.140625 -56.375 C 45.484375 -58.113281 43.007812 -58.984375 39.71875 -58.984375 C 37.195312 -58.984375 34.875 -58.132812 32.75 -56.4375 C 30.625 -54.75 29.300781 -52.34375 28.78125 -49.21875 L 7.03125 -49.21875 C 7.988281 -55.382812 10.113281 -60.394531 13.40625 -64.25 C 16.707031 -68.113281 20.703125 -70.9375 25.390625 -72.71875 C 30.078125 -74.5 34.894531 -75.390625 39.84375 -75.390625 C 44.1875 -75.390625 48.351562 -74.800781 52.34375 -73.625 C 56.332031 -72.457031 59.804688 -70.613281 62.765625 -68.09375 C 65.796875 -65.488281 67.941406 -62.492188 69.203125 -59.109375 C 70.460938 -55.722656 71.222656 -52.007812 71.484375 -47.96875 C 71.742188 -43.9375 71.875 -39.625 71.875 -35.03125 L 71.875 0 L 50 0 L 50 -8.984375 C 48.78125 -6.117188 47.046875 -3.90625 44.796875 -2.34375 C 42.617188 -0.863281 40.117188 0.15625 37.296875 0.71875 C 34.484375 1.28125 31.554688 1.5625 28.515625 1.5625 Z M 34.890625 -14.96875 C 37.492188 -14.96875 40.144531 -15.578125 42.84375 -16.796875 C 45.875 -18.179688 47.890625 -20.109375 48.890625 -22.578125 C 49.890625 -25.054688 50.429688 -28.296875 50.515625 -32.296875 L 37.109375 -29.6875 C 34.679688 -29.25 32.816406 -28.769531 31.515625 -28.25 C 30.210938 -27.726562 29.082031 -27.035156 28.125 -26.171875 C 27.519531 -25.566406 27.039062 -24.894531 26.6875 -24.15625 C 26.34375 -23.414062 26.171875 -22.523438 26.171875 -21.484375 C 26.171875 -19.140625 27.035156 -17.46875 28.765625 -16.46875 C 30.503906 -15.46875 32.546875 -14.96875 34.890625 -14.96875 Z M 34.890625 -14.96875 "/></g></g></g><g fill="#efefef" fill-opacity="1"><g transform="translate(196.722142, 224.370043)"><g><path d="M 47.390625 0 L 29.953125 0 C 24.566406 0 20.375 -1.28125 17.375 -3.84375 C 14.382812 -6.40625 12.890625 -10.03125 12.890625 -14.71875 L 12.890625 -56.765625 L 2.734375 -56.765625 L 2.734375 -73.828125 L 12.890625 -73.828125 L 12.890625 -99.34375 L 34.765625 -99.34375 L 34.765625 -73.828125 L 47.53125 -73.828125 L 47.53125 -56.765625 L 34.765625 -56.765625 L 34.765625 -22.140625 C 34.765625 -21.097656 35.023438 -20.097656 35.546875 -19.140625 C 36.066406 -18.179688 37.28125 -17.703125 39.1875 -17.703125 L 47.390625 -17.703125 Z M 47.390625 0 "/></g></g></g><g fill="#efefef" fill-opacity="1"><g transform="translate(248.534277, 224.370043)"><g><path d="M 18.09375 -78.90625 C 14.707031 -78.90625 11.800781 -79.898438 9.375 -81.890625 C 6.945312 -83.890625 5.734375 -86.625 5.734375 -90.09375 C 5.734375 -93.570312 6.945312 -96.328125 9.375 -98.359375 C 11.800781 -100.398438 14.707031 -101.421875 18.09375 -101.421875 C 21.476562 -101.421875 24.382812 -100.398438 26.8125 -98.359375 C 29.25 -96.328125 30.46875 -93.570312 30.46875 -90.09375 C 30.46875 -86.625 29.25 -83.890625 26.8125 -81.890625 C 24.382812 -79.898438 21.476562 -78.90625 18.09375 -78.90625 Z M 29.03125 0 L 7.15625 0 L 7.15625 -73.828125 L 29.03125 -73.828125 Z M 29.03125 0 "/></g></g></g><g fill="#efefef" fill-opacity="1"><g transform="translate(284.724674, 224.370043)"><g><path d="M 29.03125 0 L 7.15625 0 L 7.15625 -99.34375 L 29.03125 -99.34375 L 29.03125 -47.921875 L 52.46875 -73.828125 L 79.421875 -73.828125 L 49.09375 -42.0625 L 81.109375 0 L 55.078125 0 L 29.03125 -35.421875 Z M 29.03125 0 "/></g></g></g></svg>