<?xml version="1.0" standalone="no"?><svg xmlns="http://www.w3.org/2000/svg" viewBox="0 0 1440 320"><path fill="#EC5228" fill-opacity="1" d="M0,128L30,154.7C60,181,120,235,180,245.3C240,256,300,224,360,208C420,192,480,192,540,186.7C600,181,660,171,720,165.3C780,160,840,160,900,181.3C960,203,1020,245,1080,234.7C1140,224,1200,160,1260,122.7C1320,85,1380,75,1410,69.3L1440,64L1440,320L1410,320C1380,320,1320,320,1260,320C1200,320,1140,320,1080,320C1020,320,960,320,900,320C840,320,780,320,720,320C660,320,600,320,540,320C480,320,420,320,360,320C300,320,240,320,180,320C120,320,60,320,30,320L0,320Z"></path></svg>