<?xml version="1.0" standalone="no"?><svg xmlns="http://www.w3.org/2000/svg" viewBox="0 0 1440 320"><path fill="#3F7D58" fill-opacity="1" d="M0,192L30,176C60,160,120,128,180,101.3C240,75,300,53,360,85.3C420,117,480,203,540,229.3C600,256,660,224,720,181.3C780,139,840,85,900,69.3C960,53,1020,75,1080,85.3C1140,96,1200,96,1260,106.7C1320,117,1380,139,1410,149.3L1440,160L1440,0L1410,0C1380,0,1320,0,1260,0C1200,0,1140,0,1080,0C1020,0,960,0,900,0C840,0,780,0,720,0C660,0,600,0,540,0C480,0,420,0,360,0C300,0,240,0,180,0C120,0,60,0,30,0L0,0Z"></path></svg>